<mxfile host="Electron" modified="2023-09-29T17:43:51.869Z" agent="Mozilla/5.0 (Windows NT 10.0; Win64; x64) AppleWebKit/537.36 (KHTML, like Gecko) draw.io/21.8.2 Chrome/114.0.5735.289 Electron/25.8.1 Safari/537.36" etag="mklYVTPJ6kMY7mXA9BJz" version="21.8.2" type="device">
  <diagram name="Page-1" id="4klf8NS3zPbmRxlAo1rc">
    <mxGraphModel dx="2200" dy="2174" grid="1" gridSize="10" guides="1" tooltips="1" connect="1" arrows="1" fold="1" page="0" pageScale="1" pageWidth="850" pageHeight="1100" math="0" shadow="0">
      <root>
        <mxCell id="0" />
        <mxCell id="1" parent="0" />
        <mxCell id="iBBmV5AM9gy2NsMC8R0e-4" value="" style="edgeStyle=orthogonalEdgeStyle;rounded=0;orthogonalLoop=1;jettySize=auto;html=1;noEdgeStyle=1;orthogonal=1;" parent="1" source="iBBmV5AM9gy2NsMC8R0e-2" target="iBBmV5AM9gy2NsMC8R0e-3" edge="1">
          <mxGeometry relative="1" as="geometry" />
        </mxCell>
        <mxCell id="iBBmV5AM9gy2NsMC8R0e-11" style="edgeStyle=orthogonalEdgeStyle;rounded=0;orthogonalLoop=1;jettySize=auto;html=1;exitX=1;exitY=0.75;exitDx=0;exitDy=0;noEdgeStyle=1;orthogonal=1;" parent="1" source="iBBmV5AM9gy2NsMC8R0e-2" target="iBBmV5AM9gy2NsMC8R0e-10" edge="1">
          <mxGeometry relative="1" as="geometry" />
        </mxCell>
        <mxCell id="iBBmV5AM9gy2NsMC8R0e-14" value="" style="edgeStyle=orthogonalEdgeStyle;rounded=0;orthogonalLoop=1;jettySize=auto;html=1;noEdgeStyle=1;orthogonal=1;" parent="1" source="iBBmV5AM9gy2NsMC8R0e-2" target="iBBmV5AM9gy2NsMC8R0e-13" edge="1">
          <mxGeometry relative="1" as="geometry" />
        </mxCell>
        <mxCell id="iBBmV5AM9gy2NsMC8R0e-2" value="App" style="html=1;whiteSpace=wrap;fillColor=#fff2cc;strokeColor=#d6b656;" parent="1" vertex="1">
          <mxGeometry x="3800.4423505482932" y="120" width="110" height="50" as="geometry" />
        </mxCell>
        <mxCell id="9Nh5vzxPA52s8ncKob8F-1" style="edgeStyle=orthogonalEdgeStyle;rounded=0;orthogonalLoop=1;jettySize=auto;html=1;exitX=0;exitY=0.75;exitDx=0;exitDy=0;noEdgeStyle=1;orthogonal=1;" parent="1" source="iBBmV5AM9gy2NsMC8R0e-3" target="iBBmV5AM9gy2NsMC8R0e-23" edge="1">
          <mxGeometry relative="1" as="geometry" />
        </mxCell>
        <mxCell id="9Nh5vzxPA52s8ncKob8F-4" style="edgeStyle=orthogonalEdgeStyle;rounded=0;orthogonalLoop=1;jettySize=auto;html=1;exitX=0.25;exitY=1;exitDx=0;exitDy=0;noEdgeStyle=1;orthogonal=1;" parent="1" source="iBBmV5AM9gy2NsMC8R0e-3" target="9Nh5vzxPA52s8ncKob8F-2" edge="1">
          <mxGeometry relative="1" as="geometry" />
        </mxCell>
        <mxCell id="9Nh5vzxPA52s8ncKob8F-5" style="edgeStyle=orthogonalEdgeStyle;rounded=0;orthogonalLoop=1;jettySize=auto;html=1;exitX=0.75;exitY=1;exitDx=0;exitDy=0;noEdgeStyle=1;orthogonal=1;" parent="1" source="iBBmV5AM9gy2NsMC8R0e-3" target="9Nh5vzxPA52s8ncKob8F-3" edge="1">
          <mxGeometry relative="1" as="geometry" />
        </mxCell>
        <mxCell id="iBBmV5AM9gy2NsMC8R0e-3" value="TopBar" style="html=1;whiteSpace=wrap;fillColor=#fff2cc;strokeColor=#d6b656;" parent="1" vertex="1">
          <mxGeometry x="1364.4242255482936" y="240" width="110" height="50" as="geometry" />
        </mxCell>
        <mxCell id="9Nh5vzxPA52s8ncKob8F-48" style="edgeStyle=orthogonalEdgeStyle;rounded=0;orthogonalLoop=1;jettySize=auto;html=1;exitX=0.25;exitY=1;exitDx=0;exitDy=0;noEdgeStyle=1;orthogonal=1;" parent="1" source="iBBmV5AM9gy2NsMC8R0e-10" target="9Nh5vzxPA52s8ncKob8F-47" edge="1">
          <mxGeometry relative="1" as="geometry" />
        </mxCell>
        <mxCell id="iBBmV5AM9gy2NsMC8R0e-10" value="BottomBar" style="html=1;whiteSpace=wrap;fillColor=#fff2cc;strokeColor=#d6b656;" parent="1" vertex="1">
          <mxGeometry x="2109.4242255482936" y="240" width="110" height="50" as="geometry" />
        </mxCell>
        <mxCell id="iBBmV5AM9gy2NsMC8R0e-20" style="edgeStyle=orthogonalEdgeStyle;rounded=0;orthogonalLoop=1;jettySize=auto;html=1;exitX=0;exitY=1;exitDx=0;exitDy=0;noEdgeStyle=1;orthogonal=1;" parent="1" source="iBBmV5AM9gy2NsMC8R0e-13" target="iBBmV5AM9gy2NsMC8R0e-17" edge="1">
          <mxGeometry relative="1" as="geometry" />
        </mxCell>
        <mxCell id="iBBmV5AM9gy2NsMC8R0e-21" style="edgeStyle=orthogonalEdgeStyle;rounded=0;orthogonalLoop=1;jettySize=auto;html=1;exitX=0.25;exitY=1;exitDx=0;exitDy=0;noEdgeStyle=1;orthogonal=1;" parent="1" source="iBBmV5AM9gy2NsMC8R0e-13" target="iBBmV5AM9gy2NsMC8R0e-18" edge="1">
          <mxGeometry relative="1" as="geometry" />
        </mxCell>
        <mxCell id="iBBmV5AM9gy2NsMC8R0e-22" style="edgeStyle=orthogonalEdgeStyle;rounded=0;orthogonalLoop=1;jettySize=auto;html=1;exitX=0.5;exitY=1;exitDx=0;exitDy=0;noEdgeStyle=1;orthogonal=1;" parent="1" source="iBBmV5AM9gy2NsMC8R0e-13" target="iBBmV5AM9gy2NsMC8R0e-19" edge="1">
          <mxGeometry relative="1" as="geometry" />
        </mxCell>
        <mxCell id="iBBmV5AM9gy2NsMC8R0e-13" value="MainScreen" style="html=1;whiteSpace=wrap;fillColor=#fff2cc;strokeColor=#d6b656;" parent="1" vertex="1">
          <mxGeometry x="6236.460475548292" y="240" width="110" height="50" as="geometry" />
        </mxCell>
        <mxCell id="9Nh5vzxPA52s8ncKob8F-16" style="edgeStyle=orthogonalEdgeStyle;rounded=0;orthogonalLoop=1;jettySize=auto;html=1;exitX=0.25;exitY=1;exitDx=0;exitDy=0;noEdgeStyle=1;orthogonal=1;" parent="1" source="iBBmV5AM9gy2NsMC8R0e-17" target="9Nh5vzxPA52s8ncKob8F-14" edge="1">
          <mxGeometry relative="1" as="geometry" />
        </mxCell>
        <mxCell id="9Nh5vzxPA52s8ncKob8F-17" style="edgeStyle=orthogonalEdgeStyle;rounded=0;orthogonalLoop=1;jettySize=auto;html=1;exitX=0.75;exitY=1;exitDx=0;exitDy=0;noEdgeStyle=1;orthogonal=1;" parent="1" source="iBBmV5AM9gy2NsMC8R0e-17" target="9Nh5vzxPA52s8ncKob8F-15" edge="1">
          <mxGeometry relative="1" as="geometry" />
        </mxCell>
        <mxCell id="kuK__9mSJtx_CTiqH4BA-133" style="edgeStyle=orthogonalEdgeStyle;rounded=0;orthogonalLoop=1;jettySize=auto;html=1;exitX=1;exitY=0.5;exitDx=0;exitDy=0;" edge="1" parent="1" source="iBBmV5AM9gy2NsMC8R0e-17" target="kuK__9mSJtx_CTiqH4BA-132">
          <mxGeometry relative="1" as="geometry" />
        </mxCell>
        <mxCell id="iBBmV5AM9gy2NsMC8R0e-17" value="LeftPanel" style="html=1;whiteSpace=wrap;fillColor=#fff2cc;strokeColor=#d6b656;" parent="1" vertex="1">
          <mxGeometry x="2840.0619806503337" y="360" width="110" height="50" as="geometry" />
        </mxCell>
        <mxCell id="YQkaQOJaNGWVPEDzghuJ-56" style="edgeStyle=orthogonalEdgeStyle;rounded=0;orthogonalLoop=1;jettySize=auto;html=1;exitX=0.25;exitY=1;exitDx=0;exitDy=0;noEdgeStyle=1;orthogonal=1;" parent="1" source="iBBmV5AM9gy2NsMC8R0e-18" target="YQkaQOJaNGWVPEDzghuJ-53" edge="1">
          <mxGeometry relative="1" as="geometry" />
        </mxCell>
        <mxCell id="YQkaQOJaNGWVPEDzghuJ-57" style="edgeStyle=orthogonalEdgeStyle;rounded=0;orthogonalLoop=1;jettySize=auto;html=1;exitX=0.5;exitY=1;exitDx=0;exitDy=0;noEdgeStyle=1;orthogonal=1;" parent="1" source="iBBmV5AM9gy2NsMC8R0e-18" target="YQkaQOJaNGWVPEDzghuJ-54" edge="1">
          <mxGeometry relative="1" as="geometry" />
        </mxCell>
        <mxCell id="YQkaQOJaNGWVPEDzghuJ-58" style="edgeStyle=orthogonalEdgeStyle;rounded=0;orthogonalLoop=1;jettySize=auto;html=1;exitX=0.75;exitY=1;exitDx=0;exitDy=0;noEdgeStyle=1;orthogonal=1;" parent="1" source="iBBmV5AM9gy2NsMC8R0e-18" target="YQkaQOJaNGWVPEDzghuJ-55" edge="1">
          <mxGeometry relative="1" as="geometry" />
        </mxCell>
        <mxCell id="kuK__9mSJtx_CTiqH4BA-129" style="edgeStyle=orthogonalEdgeStyle;rounded=0;orthogonalLoop=1;jettySize=auto;html=1;exitX=0;exitY=0.25;exitDx=0;exitDy=0;" edge="1" parent="1" source="iBBmV5AM9gy2NsMC8R0e-18" target="kuK__9mSJtx_CTiqH4BA-128">
          <mxGeometry relative="1" as="geometry" />
        </mxCell>
        <mxCell id="iBBmV5AM9gy2NsMC8R0e-18" value="Workspace" style="html=1;whiteSpace=wrap;fillColor=#fff2cc;strokeColor=#d6b656;" parent="1" vertex="1">
          <mxGeometry x="4969.371382982695" y="360" width="110" height="50" as="geometry" />
        </mxCell>
        <mxCell id="YQkaQOJaNGWVPEDzghuJ-6" style="edgeStyle=orthogonalEdgeStyle;rounded=0;orthogonalLoop=1;jettySize=auto;html=1;exitX=0.25;exitY=1;exitDx=0;exitDy=0;noEdgeStyle=1;orthogonal=1;" parent="1" source="iBBmV5AM9gy2NsMC8R0e-19" target="YQkaQOJaNGWVPEDzghuJ-4" edge="1">
          <mxGeometry relative="1" as="geometry" />
        </mxCell>
        <mxCell id="YQkaQOJaNGWVPEDzghuJ-7" style="edgeStyle=orthogonalEdgeStyle;rounded=0;orthogonalLoop=1;jettySize=auto;html=1;exitX=0.75;exitY=1;exitDx=0;exitDy=0;noEdgeStyle=1;orthogonal=1;" parent="1" source="iBBmV5AM9gy2NsMC8R0e-19" target="YQkaQOJaNGWVPEDzghuJ-5" edge="1">
          <mxGeometry relative="1" as="geometry" />
        </mxCell>
        <mxCell id="iBBmV5AM9gy2NsMC8R0e-19" value="Terminal" style="html=1;whiteSpace=wrap;fillColor=#fff2cc;strokeColor=#d6b656;" parent="1" vertex="1">
          <mxGeometry x="9632.85897044625" y="360" width="110" height="50" as="geometry" />
        </mxCell>
        <mxCell id="iBBmV5AM9gy2NsMC8R0e-23" value="Logo" style="html=1;whiteSpace=wrap;fillColor=#fff2cc;strokeColor=#d6b656;" parent="1" vertex="1">
          <mxGeometry x="1139.4242255482936" y="360" width="110" height="50" as="geometry" />
        </mxCell>
        <mxCell id="9Nh5vzxPA52s8ncKob8F-7" value="" style="edgeStyle=orthogonalEdgeStyle;rounded=0;orthogonalLoop=1;jettySize=auto;html=1;noEdgeStyle=1;orthogonal=1;" parent="1" source="9Nh5vzxPA52s8ncKob8F-2" target="9Nh5vzxPA52s8ncKob8F-6" edge="1">
          <mxGeometry relative="1" as="geometry" />
        </mxCell>
        <mxCell id="9Nh5vzxPA52s8ncKob8F-2" value="MenuList" style="html=1;whiteSpace=wrap;fillColor=#fff2cc;strokeColor=#d6b656;" parent="1" vertex="1">
          <mxGeometry x="1289.4242255482936" y="360" width="110" height="50" as="geometry" />
        </mxCell>
        <mxCell id="9Nh5vzxPA52s8ncKob8F-9" value="" style="edgeStyle=orthogonalEdgeStyle;rounded=0;orthogonalLoop=1;jettySize=auto;html=1;noEdgeStyle=1;orthogonal=1;" parent="1" source="9Nh5vzxPA52s8ncKob8F-3" target="9Nh5vzxPA52s8ncKob8F-8" edge="1">
          <mxGeometry relative="1" as="geometry" />
        </mxCell>
        <mxCell id="9Nh5vzxPA52s8ncKob8F-11" style="edgeStyle=orthogonalEdgeStyle;rounded=0;orthogonalLoop=1;jettySize=auto;html=1;exitX=0.75;exitY=1;exitDx=0;exitDy=0;noEdgeStyle=1;orthogonal=1;" parent="1" source="9Nh5vzxPA52s8ncKob8F-3" target="9Nh5vzxPA52s8ncKob8F-10" edge="1">
          <mxGeometry relative="1" as="geometry" />
        </mxCell>
        <mxCell id="9Nh5vzxPA52s8ncKob8F-13" style="edgeStyle=orthogonalEdgeStyle;rounded=0;orthogonalLoop=1;jettySize=auto;html=1;exitX=1;exitY=1;exitDx=0;exitDy=0;entryX=0.5;entryY=0;entryDx=0;entryDy=0;noEdgeStyle=1;orthogonal=1;" parent="1" source="9Nh5vzxPA52s8ncKob8F-3" target="9Nh5vzxPA52s8ncKob8F-12" edge="1">
          <mxGeometry relative="1" as="geometry" />
        </mxCell>
        <mxCell id="9Nh5vzxPA52s8ncKob8F-3" value="WindowButtons" style="html=1;whiteSpace=wrap;fillColor=#fff2cc;strokeColor=#d6b656;" parent="1" vertex="1">
          <mxGeometry x="1589.4242255482936" y="360" width="110" height="50" as="geometry" />
        </mxCell>
        <mxCell id="9Nh5vzxPA52s8ncKob8F-6" value="Menu" style="html=1;whiteSpace=wrap;fillColor=#fff2cc;strokeColor=#d6b656;" parent="1" vertex="1">
          <mxGeometry x="1289.4242255482936" y="480" width="110" height="50" as="geometry" />
        </mxCell>
        <mxCell id="9Nh5vzxPA52s8ncKob8F-8" value="Minimize" style="html=1;whiteSpace=wrap;fillColor=#fff2cc;strokeColor=#d6b656;" parent="1" vertex="1">
          <mxGeometry x="1439.4242255482936" y="480" width="110" height="50" as="geometry" />
        </mxCell>
        <mxCell id="9Nh5vzxPA52s8ncKob8F-10" value="Restore" style="html=1;whiteSpace=wrap;fillColor=#fff2cc;strokeColor=#d6b656;" parent="1" vertex="1">
          <mxGeometry x="1589.4242255482936" y="480" width="110" height="50" as="geometry" />
        </mxCell>
        <mxCell id="9Nh5vzxPA52s8ncKob8F-12" value="Close" style="html=1;whiteSpace=wrap;fillColor=#fff2cc;strokeColor=#d6b656;" parent="1" vertex="1">
          <mxGeometry x="1739.4242255482936" y="480" width="110" height="50" as="geometry" />
        </mxCell>
        <mxCell id="9Nh5vzxPA52s8ncKob8F-21" style="edgeStyle=orthogonalEdgeStyle;rounded=0;orthogonalLoop=1;jettySize=auto;html=1;exitX=0.25;exitY=1;exitDx=0;exitDy=0;noEdgeStyle=1;orthogonal=1;" parent="1" source="9Nh5vzxPA52s8ncKob8F-14" target="9Nh5vzxPA52s8ncKob8F-20" edge="1">
          <mxGeometry relative="1" as="geometry" />
        </mxCell>
        <mxCell id="kuK__9mSJtx_CTiqH4BA-118" style="edgeStyle=orthogonalEdgeStyle;rounded=0;orthogonalLoop=1;jettySize=auto;html=1;exitX=0;exitY=1;exitDx=0;exitDy=0;" edge="1" parent="1" source="9Nh5vzxPA52s8ncKob8F-14" target="kuK__9mSJtx_CTiqH4BA-117">
          <mxGeometry relative="1" as="geometry" />
        </mxCell>
        <mxCell id="9Nh5vzxPA52s8ncKob8F-14" value="LeftBar" style="html=1;whiteSpace=wrap;fillColor=#fff2cc;strokeColor=#d6b656;" parent="1" vertex="1">
          <mxGeometry x="2499.4242255482927" y="480" width="110" height="50" as="geometry" />
        </mxCell>
        <mxCell id="9Nh5vzxPA52s8ncKob8F-19" style="edgeStyle=orthogonalEdgeStyle;rounded=0;orthogonalLoop=1;jettySize=auto;html=1;exitX=0.25;exitY=1;exitDx=0;exitDy=0;noEdgeStyle=1;orthogonal=1;" parent="1" source="9Nh5vzxPA52s8ncKob8F-15" target="9Nh5vzxPA52s8ncKob8F-18" edge="1">
          <mxGeometry relative="1" as="geometry" />
        </mxCell>
        <mxCell id="9Nh5vzxPA52s8ncKob8F-15" value="LeftbarView" style="html=1;whiteSpace=wrap;fillColor=#fff2cc;strokeColor=#d6b656;" parent="1" vertex="1">
          <mxGeometry x="2910.699735752374" y="480" width="110" height="50" as="geometry" />
        </mxCell>
        <mxCell id="9Nh5vzxPA52s8ncKob8F-25" style="edgeStyle=orthogonalEdgeStyle;rounded=0;orthogonalLoop=1;jettySize=auto;html=1;exitX=0;exitY=1;exitDx=0;exitDy=0;noEdgeStyle=1;orthogonal=1;" parent="1" source="9Nh5vzxPA52s8ncKob8F-18" target="9Nh5vzxPA52s8ncKob8F-24" edge="1">
          <mxGeometry relative="1" as="geometry" />
        </mxCell>
        <mxCell id="9Nh5vzxPA52s8ncKob8F-27" style="edgeStyle=orthogonalEdgeStyle;rounded=0;orthogonalLoop=1;jettySize=auto;html=1;exitX=0.75;exitY=1;exitDx=0;exitDy=0;noEdgeStyle=1;orthogonal=1;" parent="1" source="9Nh5vzxPA52s8ncKob8F-18" target="9Nh5vzxPA52s8ncKob8F-26" edge="1">
          <mxGeometry relative="1" as="geometry" />
        </mxCell>
        <mxCell id="9Nh5vzxPA52s8ncKob8F-18" value="FilesystemView" style="html=1;whiteSpace=wrap;fillColor=#fff2cc;strokeColor=#d6b656;" parent="1" vertex="1">
          <mxGeometry x="2910.699735752374" y="600" width="110" height="50" as="geometry" />
        </mxCell>
        <mxCell id="9Nh5vzxPA52s8ncKob8F-23" style="edgeStyle=orthogonalEdgeStyle;rounded=0;orthogonalLoop=1;jettySize=auto;html=1;exitX=0.25;exitY=1;exitDx=0;exitDy=0;noEdgeStyle=1;orthogonal=1;" parent="1" source="9Nh5vzxPA52s8ncKob8F-20" target="9Nh5vzxPA52s8ncKob8F-22" edge="1">
          <mxGeometry relative="1" as="geometry" />
        </mxCell>
        <mxCell id="9Nh5vzxPA52s8ncKob8F-20" value="OptionsList" style="html=1;whiteSpace=wrap;fillColor=#fff2cc;strokeColor=#d6b656;" parent="1" vertex="1">
          <mxGeometry x="2429.4242255482927" y="600" width="110" height="50" as="geometry" />
        </mxCell>
        <mxCell id="9Nh5vzxPA52s8ncKob8F-22" value="Option" style="html=1;whiteSpace=wrap;fillColor=#fff2cc;strokeColor=#d6b656;" parent="1" vertex="1">
          <mxGeometry x="2429.4242255482927" y="720" width="110" height="50" as="geometry" />
        </mxCell>
        <mxCell id="9Nh5vzxPA52s8ncKob8F-31" style="edgeStyle=orthogonalEdgeStyle;rounded=0;orthogonalLoop=1;jettySize=auto;html=1;exitX=0;exitY=1;exitDx=0;exitDy=0;entryX=0.75;entryY=0;entryDx=0;entryDy=0;noEdgeStyle=1;orthogonal=1;" parent="1" source="9Nh5vzxPA52s8ncKob8F-24" target="9Nh5vzxPA52s8ncKob8F-28" edge="1">
          <mxGeometry relative="1" as="geometry" />
        </mxCell>
        <mxCell id="9Nh5vzxPA52s8ncKob8F-32" style="edgeStyle=orthogonalEdgeStyle;rounded=0;orthogonalLoop=1;jettySize=auto;html=1;exitX=0.5;exitY=1;exitDx=0;exitDy=0;noEdgeStyle=1;orthogonal=1;" parent="1" source="9Nh5vzxPA52s8ncKob8F-24" target="9Nh5vzxPA52s8ncKob8F-29" edge="1">
          <mxGeometry relative="1" as="geometry" />
        </mxCell>
        <mxCell id="9Nh5vzxPA52s8ncKob8F-33" style="edgeStyle=orthogonalEdgeStyle;rounded=0;orthogonalLoop=1;jettySize=auto;html=1;exitX=1;exitY=1;exitDx=0;exitDy=0;noEdgeStyle=1;orthogonal=1;" parent="1" source="9Nh5vzxPA52s8ncKob8F-24" target="9Nh5vzxPA52s8ncKob8F-30" edge="1">
          <mxGeometry relative="1" as="geometry" />
        </mxCell>
        <mxCell id="9Nh5vzxPA52s8ncKob8F-24" value="FilesystemTopBar" style="html=1;whiteSpace=wrap;fillColor=#fff2cc;strokeColor=#d6b656;" parent="1" vertex="1">
          <mxGeometry x="2695.342592895231" y="720" width="110" height="50" as="geometry" />
        </mxCell>
        <mxCell id="kuK__9mSJtx_CTiqH4BA-122" style="edgeStyle=orthogonalEdgeStyle;rounded=0;orthogonalLoop=1;jettySize=auto;html=1;exitX=0.5;exitY=0;exitDx=0;exitDy=0;entryX=0;entryY=0.75;entryDx=0;entryDy=0;" edge="1" parent="1" source="9Nh5vzxPA52s8ncKob8F-26" target="kuK__9mSJtx_CTiqH4BA-121">
          <mxGeometry relative="1" as="geometry" />
        </mxCell>
        <mxCell id="9Nh5vzxPA52s8ncKob8F-26" value="HierarchicalDirectoryDisplay&lt;br&gt;&lt;div style=&quot;text-align: left;&quot;&gt;&lt;span style=&quot;background-color: initial;&quot;&gt;https://rct.lukasbach.com/&lt;/span&gt;&lt;/div&gt;" style="html=1;whiteSpace=wrap;fillColor=#e1d5e7;strokeColor=#9673a6;" parent="1" vertex="1">
          <mxGeometry x="3066.056878609517" y="720" width="170" height="50" as="geometry" />
        </mxCell>
        <mxCell id="9Nh5vzxPA52s8ncKob8F-28" value="ProjectIcon" style="html=1;whiteSpace=wrap;fillColor=#fff2cc;strokeColor=#d6b656;" parent="1" vertex="1">
          <mxGeometry x="2492.485450038088" y="840" width="110" height="50" as="geometry" />
        </mxCell>
        <mxCell id="9Nh5vzxPA52s8ncKob8F-29" value="ProjectTitle" style="html=1;whiteSpace=wrap;fillColor=#fff2cc;strokeColor=#d6b656;" parent="1" vertex="1">
          <mxGeometry x="2642.485450038088" y="840" width="110" height="50" as="geometry" />
        </mxCell>
        <mxCell id="9Nh5vzxPA52s8ncKob8F-37" style="edgeStyle=orthogonalEdgeStyle;rounded=0;orthogonalLoop=1;jettySize=auto;html=1;exitX=0;exitY=1;exitDx=0;exitDy=0;noEdgeStyle=1;orthogonal=1;" parent="1" source="9Nh5vzxPA52s8ncKob8F-30" target="9Nh5vzxPA52s8ncKob8F-34" edge="1">
          <mxGeometry relative="1" as="geometry" />
        </mxCell>
        <mxCell id="9Nh5vzxPA52s8ncKob8F-38" style="edgeStyle=orthogonalEdgeStyle;rounded=0;orthogonalLoop=1;jettySize=auto;html=1;exitX=0.25;exitY=1;exitDx=0;exitDy=0;noEdgeStyle=1;orthogonal=1;" parent="1" source="9Nh5vzxPA52s8ncKob8F-30" target="9Nh5vzxPA52s8ncKob8F-35" edge="1">
          <mxGeometry relative="1" as="geometry" />
        </mxCell>
        <mxCell id="9Nh5vzxPA52s8ncKob8F-39" style="edgeStyle=orthogonalEdgeStyle;rounded=0;orthogonalLoop=1;jettySize=auto;html=1;exitX=0.5;exitY=1;exitDx=0;exitDy=0;noEdgeStyle=1;orthogonal=1;" parent="1" source="9Nh5vzxPA52s8ncKob8F-30" target="9Nh5vzxPA52s8ncKob8F-36" edge="1">
          <mxGeometry relative="1" as="geometry" />
        </mxCell>
        <mxCell id="9Nh5vzxPA52s8ncKob8F-30" value="ProjectButtons" style="html=1;whiteSpace=wrap;fillColor=#fff2cc;strokeColor=#d6b656;" parent="1" vertex="1">
          <mxGeometry x="2898.1997357523737" y="840" width="110" height="50" as="geometry" />
        </mxCell>
        <mxCell id="kuK__9mSJtx_CTiqH4BA-120" style="edgeStyle=orthogonalEdgeStyle;rounded=0;orthogonalLoop=1;jettySize=auto;html=1;exitX=0;exitY=1;exitDx=0;exitDy=0;entryX=0.5;entryY=0;entryDx=0;entryDy=0;" edge="1" parent="1" source="9Nh5vzxPA52s8ncKob8F-34" target="kuK__9mSJtx_CTiqH4BA-119">
          <mxGeometry relative="1" as="geometry" />
        </mxCell>
        <mxCell id="9Nh5vzxPA52s8ncKob8F-34" value="ShowArtefactsOnlyButton" style="html=1;whiteSpace=wrap;fillColor=#fff2cc;strokeColor=#d6b656;" parent="1" vertex="1">
          <mxGeometry x="2713.1997357523737" y="960" width="180" height="50" as="geometry" />
        </mxCell>
        <mxCell id="9Nh5vzxPA52s8ncKob8F-35" value="RefreshButton" style="html=1;whiteSpace=wrap;fillColor=#fff2cc;strokeColor=#d6b656;" parent="1" vertex="1">
          <mxGeometry x="2933.1997357523737" y="960" width="110" height="50" as="geometry" />
        </mxCell>
        <mxCell id="9Nh5vzxPA52s8ncKob8F-36" value="CollapseAllButton" style="html=1;whiteSpace=wrap;fillColor=#fff2cc;strokeColor=#d6b656;" parent="1" vertex="1">
          <mxGeometry x="3083.1997357523737" y="960" width="110" height="50" as="geometry" />
        </mxCell>
        <mxCell id="YQkaQOJaNGWVPEDzghuJ-30" style="edgeStyle=orthogonalEdgeStyle;rounded=0;orthogonalLoop=1;jettySize=auto;html=1;exitX=1;exitY=0.5;exitDx=0;exitDy=0;noEdgeStyle=1;orthogonal=1;" parent="1" source="9Nh5vzxPA52s8ncKob8F-40" target="9Nh5vzxPA52s8ncKob8F-44" edge="1">
          <mxGeometry relative="1" as="geometry" />
        </mxCell>
        <mxCell id="9Nh5vzxPA52s8ncKob8F-40" value="HelpTooltipWrapper" style="html=1;whiteSpace=wrap;fillColor=#fff2cc;strokeColor=#d6b656;" parent="1" vertex="1">
          <mxGeometry x="9937.858970446252" y="120" width="110" height="50" as="geometry" />
        </mxCell>
        <mxCell id="9Nh5vzxPA52s8ncKob8F-44" value="&lt;div&gt;&amp;lt;HelpTooltipWrapper helpText=&quot;text&quot;&amp;gt;&lt;/div&gt;&lt;div&gt;&amp;nbsp; &amp;nbsp; &amp;lt;AnyChildren /&amp;gt;&lt;/div&gt;&lt;div&gt;&amp;lt;/HTC&amp;gt;&lt;/div&gt;&lt;div&gt;&lt;br&gt;&lt;/div&gt;&lt;div&gt;https://www.w3schools.com/howto/tryit.asp?filename=tryhow_css_tooltip&lt;br&gt;&lt;/div&gt;&lt;div&gt;https://react-tooltip.com/docs/examples/place&lt;br&gt;&lt;/div&gt;" style="text;html=1;strokeColor=none;fillColor=none;align=left;verticalAlign=middle;whiteSpace=wrap;rounded=0;labelBorderColor=default;" parent="1" vertex="1">
          <mxGeometry x="9782.858970446252" y="240" width="420" height="100" as="geometry" />
        </mxCell>
        <mxCell id="9Nh5vzxPA52s8ncKob8F-55" style="edgeStyle=orthogonalEdgeStyle;rounded=0;orthogonalLoop=1;jettySize=auto;html=1;exitX=0.25;exitY=1;exitDx=0;exitDy=0;noEdgeStyle=1;orthogonal=1;" parent="1" source="9Nh5vzxPA52s8ncKob8F-47" target="9Nh5vzxPA52s8ncKob8F-52" edge="1">
          <mxGeometry relative="1" as="geometry" />
        </mxCell>
        <mxCell id="9Nh5vzxPA52s8ncKob8F-56" style="edgeStyle=orthogonalEdgeStyle;rounded=0;orthogonalLoop=1;jettySize=auto;html=1;exitX=0.5;exitY=1;exitDx=0;exitDy=0;noEdgeStyle=1;orthogonal=1;" parent="1" source="9Nh5vzxPA52s8ncKob8F-47" target="9Nh5vzxPA52s8ncKob8F-53" edge="1">
          <mxGeometry relative="1" as="geometry" />
        </mxCell>
        <mxCell id="9Nh5vzxPA52s8ncKob8F-57" style="edgeStyle=orthogonalEdgeStyle;rounded=0;orthogonalLoop=1;jettySize=auto;html=1;exitX=0.75;exitY=1;exitDx=0;exitDy=0;noEdgeStyle=1;orthogonal=1;" parent="1" source="9Nh5vzxPA52s8ncKob8F-47" target="9Nh5vzxPA52s8ncKob8F-54" edge="1">
          <mxGeometry relative="1" as="geometry" />
        </mxCell>
        <mxCell id="kuK__9mSJtx_CTiqH4BA-104" style="edgeStyle=orthogonalEdgeStyle;rounded=0;orthogonalLoop=1;jettySize=auto;html=1;exitX=1;exitY=0.25;exitDx=0;exitDy=0;" edge="1" parent="1" source="9Nh5vzxPA52s8ncKob8F-47" target="kuK__9mSJtx_CTiqH4BA-103">
          <mxGeometry relative="1" as="geometry" />
        </mxCell>
        <mxCell id="9Nh5vzxPA52s8ncKob8F-47" value="LeftSideOptions" style="html=1;whiteSpace=wrap;fillColor=#fff2cc;strokeColor=#d6b656;" parent="1" vertex="1">
          <mxGeometry x="2109.4242255482936" y="360" width="110" height="50" as="geometry" />
        </mxCell>
        <mxCell id="9Nh5vzxPA52s8ncKob8F-49" value="OptionButton" style="html=1;whiteSpace=wrap;fillColor=#e1d5e7;strokeColor=#9673a6;" parent="1" vertex="1">
          <mxGeometry x="1889.4242255482936" y="600" width="110" height="50" as="geometry" />
        </mxCell>
        <mxCell id="9Nh5vzxPA52s8ncKob8F-58" style="edgeStyle=orthogonalEdgeStyle;rounded=0;orthogonalLoop=1;jettySize=auto;html=1;exitX=0.75;exitY=1;exitDx=0;exitDy=0;noEdgeStyle=1;orthogonal=1;" parent="1" source="9Nh5vzxPA52s8ncKob8F-52" target="9Nh5vzxPA52s8ncKob8F-49" edge="1">
          <mxGeometry relative="1" as="geometry" />
        </mxCell>
        <mxCell id="9Nh5vzxPA52s8ncKob8F-52" value="ValidationButton" style="html=1;whiteSpace=wrap;fillColor=#e1d5e7;strokeColor=#9673a6;" parent="1" vertex="1">
          <mxGeometry x="1889.4242255482936" y="480" width="110" height="50" as="geometry" />
        </mxCell>
        <mxCell id="9Nh5vzxPA52s8ncKob8F-59" style="edgeStyle=orthogonalEdgeStyle;rounded=0;orthogonalLoop=1;jettySize=auto;html=1;exitX=0.5;exitY=1;exitDx=0;exitDy=0;entryX=0.75;entryY=0;entryDx=0;entryDy=0;noEdgeStyle=1;orthogonal=1;" parent="1" source="9Nh5vzxPA52s8ncKob8F-53" target="9Nh5vzxPA52s8ncKob8F-49" edge="1">
          <mxGeometry relative="1" as="geometry" />
        </mxCell>
        <mxCell id="9Nh5vzxPA52s8ncKob8F-53" value="LogsButton" style="html=1;whiteSpace=wrap;fillColor=#e1d5e7;strokeColor=#9673a6;" parent="1" vertex="1">
          <mxGeometry x="2039.4242255482936" y="480" width="110" height="50" as="geometry" />
        </mxCell>
        <mxCell id="9Nh5vzxPA52s8ncKob8F-60" style="edgeStyle=orthogonalEdgeStyle;rounded=0;orthogonalLoop=1;jettySize=auto;html=1;exitX=0.5;exitY=1;exitDx=0;exitDy=0;entryX=1;entryY=0.5;entryDx=0;entryDy=0;noEdgeStyle=1;orthogonal=1;" parent="1" source="9Nh5vzxPA52s8ncKob8F-54" target="9Nh5vzxPA52s8ncKob8F-49" edge="1">
          <mxGeometry relative="1" as="geometry" />
        </mxCell>
        <mxCell id="9Nh5vzxPA52s8ncKob8F-54" value="CommentsButton" style="html=1;whiteSpace=wrap;fillColor=#e1d5e7;strokeColor=#9673a6;" parent="1" vertex="1">
          <mxGeometry x="2189.4242255482936" y="480" width="110" height="50" as="geometry" />
        </mxCell>
        <mxCell id="YQkaQOJaNGWVPEDzghuJ-28" style="edgeStyle=orthogonalEdgeStyle;rounded=0;orthogonalLoop=1;jettySize=auto;html=1;exitX=0.5;exitY=1;exitDx=0;exitDy=0;noEdgeStyle=1;orthogonal=1;" parent="1" source="9Nh5vzxPA52s8ncKob8F-61" target="9Nh5vzxPA52s8ncKob8F-67" edge="1">
          <mxGeometry relative="1" as="geometry" />
        </mxCell>
        <mxCell id="9Nh5vzxPA52s8ncKob8F-61" value="ValidationTerminalContent" style="html=1;whiteSpace=wrap;fillColor=#fff2cc;strokeColor=#d6b656;" parent="1" vertex="1">
          <mxGeometry x="9952.550143915636" y="600" width="165.5" height="50" as="geometry" />
        </mxCell>
        <mxCell id="YQkaQOJaNGWVPEDzghuJ-46" style="edgeStyle=orthogonalEdgeStyle;rounded=0;orthogonalLoop=1;jettySize=auto;html=1;exitX=0.5;exitY=1;exitDx=0;exitDy=0;noEdgeStyle=1;orthogonal=1;" parent="1" source="9Nh5vzxPA52s8ncKob8F-62" target="YQkaQOJaNGWVPEDzghuJ-45" edge="1">
          <mxGeometry relative="1" as="geometry" />
        </mxCell>
        <mxCell id="kuK__9mSJtx_CTiqH4BA-112" style="edgeStyle=orthogonalEdgeStyle;rounded=0;orthogonalLoop=1;jettySize=auto;html=1;exitX=1;exitY=0.5;exitDx=0;exitDy=0;" edge="1" parent="1" source="9Nh5vzxPA52s8ncKob8F-62" target="kuK__9mSJtx_CTiqH4BA-111">
          <mxGeometry relative="1" as="geometry" />
        </mxCell>
        <mxCell id="kuK__9mSJtx_CTiqH4BA-116" style="edgeStyle=orthogonalEdgeStyle;rounded=0;orthogonalLoop=1;jettySize=auto;html=1;exitX=0.75;exitY=1;exitDx=0;exitDy=0;" edge="1" parent="1" source="9Nh5vzxPA52s8ncKob8F-62" target="kuK__9mSJtx_CTiqH4BA-114">
          <mxGeometry relative="1" as="geometry" />
        </mxCell>
        <mxCell id="9Nh5vzxPA52s8ncKob8F-62" value="LogsTerminalContent" style="html=1;whiteSpace=wrap;fillColor=#fff2cc;strokeColor=#d6b656;" parent="1" vertex="1">
          <mxGeometry x="10466.52973575237" y="600" width="125.5" height="50" as="geometry" />
        </mxCell>
        <mxCell id="YQkaQOJaNGWVPEDzghuJ-29" style="edgeStyle=orthogonalEdgeStyle;rounded=0;orthogonalLoop=1;jettySize=auto;html=1;exitX=0.5;exitY=1;exitDx=0;exitDy=0;noEdgeStyle=1;orthogonal=1;" parent="1" source="9Nh5vzxPA52s8ncKob8F-63" target="9Nh5vzxPA52s8ncKob8F-67" edge="1">
          <mxGeometry relative="1" as="geometry" />
        </mxCell>
        <mxCell id="9Nh5vzxPA52s8ncKob8F-63" value="CommentsTerminalContent" style="html=1;whiteSpace=wrap;fillColor=#fff2cc;strokeColor=#d6b656;" parent="1" vertex="1">
          <mxGeometry x="10170.764429629922" y="600" width="165.5" height="50" as="geometry" />
        </mxCell>
        <mxCell id="YQkaQOJaNGWVPEDzghuJ-52" style="edgeStyle=orthogonalEdgeStyle;rounded=0;orthogonalLoop=1;jettySize=auto;html=1;exitX=0.5;exitY=1;exitDx=0;exitDy=0;noEdgeStyle=1;orthogonal=1;" parent="1" source="9Nh5vzxPA52s8ncKob8F-67" target="YQkaQOJaNGWVPEDzghuJ-51" edge="1">
          <mxGeometry relative="1" as="geometry" />
        </mxCell>
        <mxCell id="9Nh5vzxPA52s8ncKob8F-67" value="FileSpecificMessageTerminalContent" style="html=1;whiteSpace=wrap;fillColor=#fff2cc;strokeColor=#d6b656;" parent="1" vertex="1">
          <mxGeometry x="9930.300143915636" y="720" width="210" height="50" as="geometry" />
        </mxCell>
        <mxCell id="YQkaQOJaNGWVPEDzghuJ-10" style="edgeStyle=orthogonalEdgeStyle;rounded=0;orthogonalLoop=1;jettySize=auto;html=1;exitX=0.25;exitY=1;exitDx=0;exitDy=0;noEdgeStyle=1;orthogonal=1;" parent="1" source="YQkaQOJaNGWVPEDzghuJ-4" target="YQkaQOJaNGWVPEDzghuJ-8" edge="1">
          <mxGeometry relative="1" as="geometry" />
        </mxCell>
        <mxCell id="YQkaQOJaNGWVPEDzghuJ-11" style="edgeStyle=orthogonalEdgeStyle;rounded=0;orthogonalLoop=1;jettySize=auto;html=1;exitX=0.5;exitY=1;exitDx=0;exitDy=0;noEdgeStyle=1;orthogonal=1;" parent="1" source="YQkaQOJaNGWVPEDzghuJ-4" target="YQkaQOJaNGWVPEDzghuJ-9" edge="1">
          <mxGeometry relative="1" as="geometry" />
        </mxCell>
        <mxCell id="YQkaQOJaNGWVPEDzghuJ-4" value="TerminalNav" style="html=1;whiteSpace=wrap;fillColor=#fff2cc;strokeColor=#d6b656;" parent="1" vertex="1">
          <mxGeometry x="9191.374429629923" y="480" width="110" height="50" as="geometry" />
        </mxCell>
        <mxCell id="YQkaQOJaNGWVPEDzghuJ-16" style="edgeStyle=orthogonalEdgeStyle;rounded=0;orthogonalLoop=1;jettySize=auto;html=1;exitX=1;exitY=0.25;exitDx=0;exitDy=0;entryX=0;entryY=0.25;entryDx=0;entryDy=0;noEdgeStyle=1;orthogonal=1;" parent="1" source="YQkaQOJaNGWVPEDzghuJ-5" target="YQkaQOJaNGWVPEDzghuJ-15" edge="1">
          <mxGeometry relative="1" as="geometry" />
        </mxCell>
        <mxCell id="YQkaQOJaNGWVPEDzghuJ-24" style="edgeStyle=orthogonalEdgeStyle;rounded=0;orthogonalLoop=1;jettySize=auto;html=1;exitX=0.25;exitY=1;exitDx=0;exitDy=0;noEdgeStyle=1;orthogonal=1;" parent="1" source="YQkaQOJaNGWVPEDzghuJ-5" target="9Nh5vzxPA52s8ncKob8F-61" edge="1">
          <mxGeometry relative="1" as="geometry" />
        </mxCell>
        <mxCell id="YQkaQOJaNGWVPEDzghuJ-25" style="edgeStyle=orthogonalEdgeStyle;rounded=0;orthogonalLoop=1;jettySize=auto;html=1;exitX=0.5;exitY=1;exitDx=0;exitDy=0;noEdgeStyle=1;orthogonal=1;" parent="1" source="YQkaQOJaNGWVPEDzghuJ-5" target="9Nh5vzxPA52s8ncKob8F-63" edge="1">
          <mxGeometry relative="1" as="geometry" />
        </mxCell>
        <mxCell id="YQkaQOJaNGWVPEDzghuJ-26" style="edgeStyle=orthogonalEdgeStyle;rounded=0;orthogonalLoop=1;jettySize=auto;html=1;exitX=0.75;exitY=1;exitDx=0;exitDy=0;noEdgeStyle=1;orthogonal=1;" parent="1" source="YQkaQOJaNGWVPEDzghuJ-5" target="9Nh5vzxPA52s8ncKob8F-62" edge="1">
          <mxGeometry relative="1" as="geometry" />
        </mxCell>
        <mxCell id="YQkaQOJaNGWVPEDzghuJ-5" value="TerminalContent" style="html=1;whiteSpace=wrap;fillColor=#fff2cc;strokeColor=#d6b656;" parent="1" vertex="1">
          <mxGeometry x="10074.343511262576" y="480" width="110" height="50" as="geometry" />
        </mxCell>
        <mxCell id="YQkaQOJaNGWVPEDzghuJ-21" style="edgeStyle=orthogonalEdgeStyle;rounded=0;orthogonalLoop=1;jettySize=auto;html=1;exitX=0;exitY=1;exitDx=0;exitDy=0;noEdgeStyle=1;orthogonal=1;" parent="1" source="YQkaQOJaNGWVPEDzghuJ-8" target="YQkaQOJaNGWVPEDzghuJ-12" edge="1">
          <mxGeometry relative="1" as="geometry" />
        </mxCell>
        <mxCell id="YQkaQOJaNGWVPEDzghuJ-22" style="edgeStyle=orthogonalEdgeStyle;rounded=0;orthogonalLoop=1;jettySize=auto;html=1;exitX=0.25;exitY=1;exitDx=0;exitDy=0;noEdgeStyle=1;orthogonal=1;" parent="1" source="YQkaQOJaNGWVPEDzghuJ-8" target="YQkaQOJaNGWVPEDzghuJ-13" edge="1">
          <mxGeometry relative="1" as="geometry" />
        </mxCell>
        <mxCell id="YQkaQOJaNGWVPEDzghuJ-23" style="edgeStyle=orthogonalEdgeStyle;rounded=0;orthogonalLoop=1;jettySize=auto;html=1;exitX=0.75;exitY=1;exitDx=0;exitDy=0;noEdgeStyle=1;orthogonal=1;" parent="1" source="YQkaQOJaNGWVPEDzghuJ-8" target="YQkaQOJaNGWVPEDzghuJ-17" edge="1">
          <mxGeometry relative="1" as="geometry" />
        </mxCell>
        <mxCell id="YQkaQOJaNGWVPEDzghuJ-8" value="TerminalSpecificControls" style="html=1;whiteSpace=wrap;fillColor=#fff2cc;strokeColor=#d6b656;" parent="1" vertex="1">
          <mxGeometry x="8942.434429629922" y="600" width="150" height="50" as="geometry" />
        </mxCell>
        <mxCell id="YQkaQOJaNGWVPEDzghuJ-35" style="edgeStyle=orthogonalEdgeStyle;rounded=0;orthogonalLoop=1;jettySize=auto;html=1;exitX=0.75;exitY=1;exitDx=0;exitDy=0;noEdgeStyle=1;orthogonal=1;" parent="1" source="YQkaQOJaNGWVPEDzghuJ-9" target="YQkaQOJaNGWVPEDzghuJ-34" edge="1">
          <mxGeometry relative="1" as="geometry" />
        </mxCell>
        <mxCell id="YQkaQOJaNGWVPEDzghuJ-37" style="edgeStyle=orthogonalEdgeStyle;rounded=0;orthogonalLoop=1;jettySize=auto;html=1;exitX=1;exitY=1;exitDx=0;exitDy=0;noEdgeStyle=1;orthogonal=1;" parent="1" source="YQkaQOJaNGWVPEDzghuJ-9" target="YQkaQOJaNGWVPEDzghuJ-36" edge="1">
          <mxGeometry relative="1" as="geometry" />
        </mxCell>
        <mxCell id="YQkaQOJaNGWVPEDzghuJ-9" value="TerminalButtons" style="html=1;whiteSpace=wrap;fillColor=#fff2cc;strokeColor=#d6b656;" parent="1" vertex="1">
          <mxGeometry x="9440.314429629922" y="600" width="110" height="50" as="geometry" />
        </mxCell>
        <mxCell id="YQkaQOJaNGWVPEDzghuJ-19" style="edgeStyle=orthogonalEdgeStyle;rounded=0;orthogonalLoop=1;jettySize=auto;html=1;exitX=0.5;exitY=1;exitDx=0;exitDy=0;noEdgeStyle=1;orthogonal=1;" parent="1" source="YQkaQOJaNGWVPEDzghuJ-12" target="YQkaQOJaNGWVPEDzghuJ-14" edge="1">
          <mxGeometry relative="1" as="geometry" />
        </mxCell>
        <mxCell id="YQkaQOJaNGWVPEDzghuJ-12" value="ValidationTerminalControls" style="html=1;whiteSpace=wrap;fillColor=#fff2cc;strokeColor=#d6b656;" parent="1" vertex="1">
          <mxGeometry x="8741.434429629922" y="720" width="164.5" height="50" as="geometry" />
        </mxCell>
        <mxCell id="YQkaQOJaNGWVPEDzghuJ-20" style="edgeStyle=orthogonalEdgeStyle;rounded=0;orthogonalLoop=1;jettySize=auto;html=1;exitX=0.5;exitY=1;exitDx=0;exitDy=0;noEdgeStyle=1;orthogonal=1;" parent="1" source="YQkaQOJaNGWVPEDzghuJ-13" target="YQkaQOJaNGWVPEDzghuJ-14" edge="1">
          <mxGeometry relative="1" as="geometry" />
        </mxCell>
        <mxCell id="YQkaQOJaNGWVPEDzghuJ-13" value="CommentsTerminalControls" style="html=1;whiteSpace=wrap;fillColor=#fff2cc;strokeColor=#d6b656;" parent="1" vertex="1">
          <mxGeometry x="8958.934429629922" y="720" width="164.5" height="50" as="geometry" />
        </mxCell>
        <mxCell id="YQkaQOJaNGWVPEDzghuJ-40" style="edgeStyle=orthogonalEdgeStyle;rounded=0;orthogonalLoop=1;jettySize=auto;html=1;exitX=0.25;exitY=1;exitDx=0;exitDy=0;noEdgeStyle=1;orthogonal=1;" parent="1" source="YQkaQOJaNGWVPEDzghuJ-14" target="YQkaQOJaNGWVPEDzghuJ-38" edge="1">
          <mxGeometry relative="1" as="geometry" />
        </mxCell>
        <mxCell id="YQkaQOJaNGWVPEDzghuJ-41" style="edgeStyle=orthogonalEdgeStyle;rounded=0;orthogonalLoop=1;jettySize=auto;html=1;exitX=0.75;exitY=1;exitDx=0;exitDy=0;noEdgeStyle=1;orthogonal=1;" parent="1" source="YQkaQOJaNGWVPEDzghuJ-14" target="YQkaQOJaNGWVPEDzghuJ-39" edge="1">
          <mxGeometry relative="1" as="geometry" />
        </mxCell>
        <mxCell id="YQkaQOJaNGWVPEDzghuJ-14" value="FileSpecificMessageTerminalControls" style="html=1;whiteSpace=wrap;fillColor=#fff2cc;strokeColor=#d6b656;" parent="1" vertex="1">
          <mxGeometry x="8718.684429629922" y="840" width="210" height="50" as="geometry" />
        </mxCell>
        <mxCell id="YQkaQOJaNGWVPEDzghuJ-15" value="This will handle any scrolling, allowing its children to behave as though they have infinite area." style="text;html=1;strokeColor=default;fillColor=none;align=left;verticalAlign=top;whiteSpace=wrap;rounded=0;" parent="1" vertex="1">
          <mxGeometry x="9666.65728677278" y="600" width="230" height="60" as="geometry" />
        </mxCell>
        <mxCell id="YQkaQOJaNGWVPEDzghuJ-42" style="edgeStyle=orthogonalEdgeStyle;rounded=0;orthogonalLoop=1;jettySize=auto;html=1;exitX=0;exitY=1;exitDx=0;exitDy=0;noEdgeStyle=1;orthogonal=1;" parent="1" source="YQkaQOJaNGWVPEDzghuJ-17" target="YQkaQOJaNGWVPEDzghuJ-38" edge="1">
          <mxGeometry relative="1" as="geometry" />
        </mxCell>
        <mxCell id="YQkaQOJaNGWVPEDzghuJ-44" style="edgeStyle=orthogonalEdgeStyle;rounded=0;orthogonalLoop=1;jettySize=auto;html=1;exitX=0.75;exitY=1;exitDx=0;exitDy=0;noEdgeStyle=1;orthogonal=1;" parent="1" source="YQkaQOJaNGWVPEDzghuJ-17" target="YQkaQOJaNGWVPEDzghuJ-43" edge="1">
          <mxGeometry relative="1" as="geometry" />
        </mxCell>
        <mxCell id="YQkaQOJaNGWVPEDzghuJ-17" value="LogsTerminalControls" style="html=1;whiteSpace=wrap;fillColor=#fff2cc;strokeColor=#d6b656;" parent="1" vertex="1">
          <mxGeometry x="9163.434429629922" y="720" width="130" height="50" as="geometry" />
        </mxCell>
        <mxCell id="YQkaQOJaNGWVPEDzghuJ-32" style="edgeStyle=orthogonalEdgeStyle;rounded=0;orthogonalLoop=1;jettySize=auto;html=1;exitX=0.25;exitY=1;exitDx=0;exitDy=0;entryX=0.75;entryY=0;entryDx=0;entryDy=0;noEdgeStyle=1;orthogonal=1;" parent="1" source="YQkaQOJaNGWVPEDzghuJ-31" target="iBBmV5AM9gy2NsMC8R0e-2" edge="1">
          <mxGeometry relative="1" as="geometry" />
        </mxCell>
        <mxCell id="YQkaQOJaNGWVPEDzghuJ-33" style="edgeStyle=orthogonalEdgeStyle;rounded=0;orthogonalLoop=1;jettySize=auto;html=1;exitX=0.75;exitY=1;exitDx=0;exitDy=0;noEdgeStyle=1;orthogonal=1;" parent="1" source="YQkaQOJaNGWVPEDzghuJ-31" target="9Nh5vzxPA52s8ncKob8F-40" edge="1">
          <mxGeometry relative="1" as="geometry" />
        </mxCell>
        <mxCell id="kuK__9mSJtx_CTiqH4BA-102" style="edgeStyle=orthogonalEdgeStyle;rounded=0;orthogonalLoop=1;jettySize=auto;html=1;exitX=1;exitY=0;exitDx=0;exitDy=0;" edge="1" parent="1" source="YQkaQOJaNGWVPEDzghuJ-31" target="kuK__9mSJtx_CTiqH4BA-101">
          <mxGeometry relative="1" as="geometry" />
        </mxCell>
        <mxCell id="YQkaQOJaNGWVPEDzghuJ-31" value="document" style="html=1;whiteSpace=wrap;fillColor=#fff2cc;strokeColor=#d6b656;" parent="1" vertex="1">
          <mxGeometry x="7003.436374782987" width="110" height="50" as="geometry" />
        </mxCell>
        <mxCell id="YQkaQOJaNGWVPEDzghuJ-34" value="MinimizeTerminalButton" style="html=1;whiteSpace=wrap;fillColor=#fff2cc;strokeColor=#d6b656;" parent="1" vertex="1">
          <mxGeometry x="9333.434429629922" y="720" width="133.76" height="50" as="geometry" />
        </mxCell>
        <mxCell id="YQkaQOJaNGWVPEDzghuJ-36" value="RestoreMaximizeButton" style="html=1;whiteSpace=wrap;fillColor=#fff2cc;strokeColor=#d6b656;" parent="1" vertex="1">
          <mxGeometry x="9507.194429629923" y="720" width="150" height="50" as="geometry" />
        </mxCell>
        <mxCell id="kuK__9mSJtx_CTiqH4BA-106" style="edgeStyle=orthogonalEdgeStyle;rounded=0;orthogonalLoop=1;jettySize=auto;html=1;exitX=0.25;exitY=1;exitDx=0;exitDy=0;" edge="1" parent="1" source="YQkaQOJaNGWVPEDzghuJ-38" target="kuK__9mSJtx_CTiqH4BA-105">
          <mxGeometry relative="1" as="geometry" />
        </mxCell>
        <mxCell id="YQkaQOJaNGWVPEDzghuJ-38" value="FilterBox" style="html=1;whiteSpace=wrap;fillColor=#fff2cc;strokeColor=#d6b656;" parent="1" vertex="1">
          <mxGeometry x="8695.684429629922" y="960" width="110" height="50" as="geometry" />
        </mxCell>
        <mxCell id="kuK__9mSJtx_CTiqH4BA-108" style="edgeStyle=orthogonalEdgeStyle;rounded=0;orthogonalLoop=1;jettySize=auto;html=1;exitX=0.5;exitY=1;exitDx=0;exitDy=0;" edge="1" parent="1" source="YQkaQOJaNGWVPEDzghuJ-39" target="kuK__9mSJtx_CTiqH4BA-107">
          <mxGeometry relative="1" as="geometry" />
        </mxCell>
        <mxCell id="YQkaQOJaNGWVPEDzghuJ-39" value="Checkbox" style="html=1;whiteSpace=wrap;fillColor=#fff2cc;strokeColor=#d6b656;" parent="1" vertex="1">
          <mxGeometry x="8845.684429629922" y="960" width="106" height="60" as="geometry" />
        </mxCell>
        <mxCell id="YQkaQOJaNGWVPEDzghuJ-43" value="ExportButton" style="html=1;whiteSpace=wrap;fillColor=#fff2cc;strokeColor=#d6b656;" parent="1" vertex="1">
          <mxGeometry x="9173.434429629922" y="840" width="110" height="50" as="geometry" />
        </mxCell>
        <mxCell id="YQkaQOJaNGWVPEDzghuJ-49" style="edgeStyle=orthogonalEdgeStyle;rounded=0;orthogonalLoop=1;jettySize=auto;html=1;exitX=0.25;exitY=1;exitDx=0;exitDy=0;noEdgeStyle=1;orthogonal=1;" parent="1" source="YQkaQOJaNGWVPEDzghuJ-45" target="YQkaQOJaNGWVPEDzghuJ-47" edge="1">
          <mxGeometry relative="1" as="geometry" />
        </mxCell>
        <mxCell id="YQkaQOJaNGWVPEDzghuJ-50" style="edgeStyle=orthogonalEdgeStyle;rounded=0;orthogonalLoop=1;jettySize=auto;html=1;exitX=0.75;exitY=1;exitDx=0;exitDy=0;noEdgeStyle=1;orthogonal=1;" parent="1" source="YQkaQOJaNGWVPEDzghuJ-45" target="YQkaQOJaNGWVPEDzghuJ-48" edge="1">
          <mxGeometry relative="1" as="geometry" />
        </mxCell>
        <mxCell id="YQkaQOJaNGWVPEDzghuJ-45" value="LogMessage" style="html=1;whiteSpace=wrap;fillColor=#fff2cc;strokeColor=#d6b656;" parent="1" vertex="1">
          <mxGeometry x="10308.565450038084" y="720" width="110" height="50" as="geometry" />
        </mxCell>
        <mxCell id="YQkaQOJaNGWVPEDzghuJ-47" value="MessageTimestamp" style="html=1;whiteSpace=wrap;fillColor=#fff2cc;strokeColor=#d6b656;" parent="1" vertex="1">
          <mxGeometry x="10233.565450038084" y="840" width="110" height="50" as="geometry" />
        </mxCell>
        <mxCell id="YQkaQOJaNGWVPEDzghuJ-48" value="MessageString" style="html=1;whiteSpace=wrap;fillColor=#fff2cc;strokeColor=#d6b656;" parent="1" vertex="1">
          <mxGeometry x="10383.565450038084" y="840" width="110" height="50" as="geometry" />
        </mxCell>
        <mxCell id="kuK__9mSJtx_CTiqH4BA-110" style="edgeStyle=orthogonalEdgeStyle;rounded=0;orthogonalLoop=1;jettySize=auto;html=1;exitX=0;exitY=0.75;exitDx=0;exitDy=0;" edge="1" parent="1" source="YQkaQOJaNGWVPEDzghuJ-51" target="kuK__9mSJtx_CTiqH4BA-109">
          <mxGeometry relative="1" as="geometry" />
        </mxCell>
        <mxCell id="YQkaQOJaNGWVPEDzghuJ-51" value="HierarchicalMessageDisplay" style="html=1;whiteSpace=wrap;fillColor=#fff2cc;strokeColor=#d6b656;" parent="1" vertex="1">
          <mxGeometry x="9955.300143915636" y="840" width="160" height="50" as="geometry" />
        </mxCell>
        <mxCell id="YQkaQOJaNGWVPEDzghuJ-61" style="edgeStyle=orthogonalEdgeStyle;rounded=0;orthogonalLoop=1;jettySize=auto;html=1;exitX=0.25;exitY=1;exitDx=0;exitDy=0;noEdgeStyle=1;orthogonal=1;" parent="1" source="YQkaQOJaNGWVPEDzghuJ-53" target="YQkaQOJaNGWVPEDzghuJ-59" edge="1">
          <mxGeometry relative="1" as="geometry" />
        </mxCell>
        <mxCell id="YQkaQOJaNGWVPEDzghuJ-62" style="edgeStyle=orthogonalEdgeStyle;rounded=0;orthogonalLoop=1;jettySize=auto;html=1;exitX=0.75;exitY=1;exitDx=0;exitDy=0;noEdgeStyle=1;orthogonal=1;" parent="1" source="YQkaQOJaNGWVPEDzghuJ-53" target="YQkaQOJaNGWVPEDzghuJ-60" edge="1">
          <mxGeometry relative="1" as="geometry" />
        </mxCell>
        <mxCell id="YQkaQOJaNGWVPEDzghuJ-53" value="TopTabBar" style="html=1;whiteSpace=wrap;fillColor=#fff2cc;strokeColor=#d6b656;" parent="1" vertex="1">
          <mxGeometry x="3612.842592895231" y="480" width="110" height="50" as="geometry" />
        </mxCell>
        <mxCell id="kuK__9mSJtx_CTiqH4BA-127" style="edgeStyle=orthogonalEdgeStyle;rounded=0;orthogonalLoop=1;jettySize=auto;html=1;exitX=0.75;exitY=1;exitDx=0;exitDy=0;" edge="1" parent="1" source="YQkaQOJaNGWVPEDzghuJ-54" target="kuK__9mSJtx_CTiqH4BA-126">
          <mxGeometry relative="1" as="geometry" />
        </mxCell>
        <mxCell id="YQkaQOJaNGWVPEDzghuJ-54" value="QuickAddressBar" style="html=1;whiteSpace=wrap;fillColor=#fff2cc;strokeColor=#d6b656;" parent="1" vertex="1">
          <mxGeometry x="3888.199735752374" y="480" width="110" height="50" as="geometry" />
        </mxCell>
        <mxCell id="kuK__9mSJtx_CTiqH4BA-11" style="edgeStyle=orthogonalEdgeStyle;rounded=0;orthogonalLoop=1;jettySize=auto;html=1;exitX=0;exitY=1;exitDx=0;exitDy=0;" edge="1" parent="1" source="YQkaQOJaNGWVPEDzghuJ-55" target="kuK__9mSJtx_CTiqH4BA-8">
          <mxGeometry relative="1" as="geometry" />
        </mxCell>
        <mxCell id="kuK__9mSJtx_CTiqH4BA-12" style="edgeStyle=orthogonalEdgeStyle;rounded=0;orthogonalLoop=1;jettySize=auto;html=1;exitX=0.25;exitY=1;exitDx=0;exitDy=0;" edge="1" parent="1" source="YQkaQOJaNGWVPEDzghuJ-55" target="kuK__9mSJtx_CTiqH4BA-9">
          <mxGeometry relative="1" as="geometry" />
        </mxCell>
        <mxCell id="kuK__9mSJtx_CTiqH4BA-13" style="edgeStyle=orthogonalEdgeStyle;rounded=0;orthogonalLoop=1;jettySize=auto;html=1;exitX=0.75;exitY=1;exitDx=0;exitDy=0;" edge="1" parent="1" source="YQkaQOJaNGWVPEDzghuJ-55" target="kuK__9mSJtx_CTiqH4BA-10">
          <mxGeometry relative="1" as="geometry" />
        </mxCell>
        <mxCell id="kuK__9mSJtx_CTiqH4BA-131" style="edgeStyle=orthogonalEdgeStyle;rounded=0;orthogonalLoop=1;jettySize=auto;html=1;exitX=1;exitY=0;exitDx=0;exitDy=0;" edge="1" parent="1" source="YQkaQOJaNGWVPEDzghuJ-55" target="kuK__9mSJtx_CTiqH4BA-130">
          <mxGeometry relative="1" as="geometry" />
        </mxCell>
        <mxCell id="YQkaQOJaNGWVPEDzghuJ-55" value="Canvas" style="html=1;whiteSpace=wrap;fillColor=#fff2cc;strokeColor=#d6b656;" parent="1" vertex="1">
          <mxGeometry x="5777.000756160537" y="480" width="110" height="50" as="geometry" />
        </mxCell>
        <mxCell id="YQkaQOJaNGWVPEDzghuJ-66" style="edgeStyle=orthogonalEdgeStyle;rounded=0;orthogonalLoop=1;jettySize=auto;html=1;exitX=0.5;exitY=1;exitDx=0;exitDy=0;noEdgeStyle=1;orthogonal=1;" parent="1" source="YQkaQOJaNGWVPEDzghuJ-59" target="YQkaQOJaNGWVPEDzghuJ-65" edge="1">
          <mxGeometry relative="1" as="geometry" />
        </mxCell>
        <mxCell id="kuK__9mSJtx_CTiqH4BA-125" style="edgeStyle=orthogonalEdgeStyle;rounded=0;orthogonalLoop=1;jettySize=auto;html=1;exitX=0.75;exitY=0;exitDx=0;exitDy=0;" edge="1" parent="1" source="YQkaQOJaNGWVPEDzghuJ-59" target="kuK__9mSJtx_CTiqH4BA-123">
          <mxGeometry relative="1" as="geometry" />
        </mxCell>
        <mxCell id="YQkaQOJaNGWVPEDzghuJ-59" value="TabsList" style="html=1;whiteSpace=wrap;fillColor=#fff2cc;strokeColor=#d6b656;" parent="1" vertex="1">
          <mxGeometry x="3482.4854500380884" y="600" width="110" height="50" as="geometry" />
        </mxCell>
        <mxCell id="YQkaQOJaNGWVPEDzghuJ-64" style="edgeStyle=orthogonalEdgeStyle;rounded=0;orthogonalLoop=1;jettySize=auto;html=1;exitX=0.5;exitY=1;exitDx=0;exitDy=0;noEdgeStyle=1;orthogonal=1;" parent="1" source="YQkaQOJaNGWVPEDzghuJ-60" target="YQkaQOJaNGWVPEDzghuJ-63" edge="1">
          <mxGeometry relative="1" as="geometry" />
        </mxCell>
        <mxCell id="kuK__9mSJtx_CTiqH4BA-124" style="edgeStyle=orthogonalEdgeStyle;rounded=0;orthogonalLoop=1;jettySize=auto;html=1;exitX=0.75;exitY=0;exitDx=0;exitDy=0;" edge="1" parent="1" source="YQkaQOJaNGWVPEDzghuJ-60" target="kuK__9mSJtx_CTiqH4BA-123">
          <mxGeometry relative="1" as="geometry" />
        </mxCell>
        <mxCell id="YQkaQOJaNGWVPEDzghuJ-60" value="CurrentlyActiveOptions" style="html=1;whiteSpace=wrap;fillColor=#fff2cc;strokeColor=#d6b656;" parent="1" vertex="1">
          <mxGeometry x="3713.199735752374" y="600" width="140" height="50" as="geometry" />
        </mxCell>
        <mxCell id="YQkaQOJaNGWVPEDzghuJ-74" style="edgeStyle=orthogonalEdgeStyle;rounded=0;orthogonalLoop=1;jettySize=auto;html=1;exitX=0.5;exitY=1;exitDx=0;exitDy=0;noEdgeStyle=1;orthogonal=1;" parent="1" source="YQkaQOJaNGWVPEDzghuJ-63" target="YQkaQOJaNGWVPEDzghuJ-70" edge="1">
          <mxGeometry relative="1" as="geometry" />
        </mxCell>
        <mxCell id="YQkaQOJaNGWVPEDzghuJ-63" value="DCOptions" style="html=1;whiteSpace=wrap;fillColor=#fff2cc;strokeColor=#d6b656;" parent="1" vertex="1">
          <mxGeometry x="3728.199735752374" y="720" width="110" height="50" as="geometry" />
        </mxCell>
        <mxCell id="YQkaQOJaNGWVPEDzghuJ-71" style="edgeStyle=orthogonalEdgeStyle;rounded=0;orthogonalLoop=1;jettySize=auto;html=1;exitX=0.25;exitY=1;exitDx=0;exitDy=0;noEdgeStyle=1;orthogonal=1;" parent="1" source="YQkaQOJaNGWVPEDzghuJ-65" target="YQkaQOJaNGWVPEDzghuJ-67" edge="1">
          <mxGeometry relative="1" as="geometry" />
        </mxCell>
        <mxCell id="YQkaQOJaNGWVPEDzghuJ-72" style="edgeStyle=orthogonalEdgeStyle;rounded=0;orthogonalLoop=1;jettySize=auto;html=1;exitX=0.5;exitY=1;exitDx=0;exitDy=0;noEdgeStyle=1;orthogonal=1;" parent="1" source="YQkaQOJaNGWVPEDzghuJ-65" target="YQkaQOJaNGWVPEDzghuJ-68" edge="1">
          <mxGeometry relative="1" as="geometry" />
        </mxCell>
        <mxCell id="YQkaQOJaNGWVPEDzghuJ-73" style="edgeStyle=orthogonalEdgeStyle;rounded=0;orthogonalLoop=1;jettySize=auto;html=1;exitX=0.75;exitY=1;exitDx=0;exitDy=0;noEdgeStyle=1;orthogonal=1;" parent="1" source="YQkaQOJaNGWVPEDzghuJ-65" target="YQkaQOJaNGWVPEDzghuJ-69" edge="1">
          <mxGeometry relative="1" as="geometry" />
        </mxCell>
        <mxCell id="YQkaQOJaNGWVPEDzghuJ-65" value="Tab" style="html=1;whiteSpace=wrap;fillColor=#fff2cc;strokeColor=#d6b656;" parent="1" vertex="1">
          <mxGeometry x="3391.056878609517" y="720" width="110" height="50" as="geometry" />
        </mxCell>
        <mxCell id="YQkaQOJaNGWVPEDzghuJ-67" value="FileName" style="html=1;whiteSpace=wrap;fillColor=#fff2cc;strokeColor=#d6b656;" parent="1" vertex="1">
          <mxGeometry x="3241.056878609517" y="840" width="110" height="50" as="geometry" />
        </mxCell>
        <mxCell id="YQkaQOJaNGWVPEDzghuJ-68" value="UnsavedFlag" style="html=1;whiteSpace=wrap;fillColor=#fff2cc;strokeColor=#d6b656;" parent="1" vertex="1">
          <mxGeometry x="3391.056878609517" y="840" width="110" height="50" as="geometry" />
        </mxCell>
        <mxCell id="YQkaQOJaNGWVPEDzghuJ-69" value="CloseButton" style="html=1;whiteSpace=wrap;fillColor=#fff2cc;strokeColor=#d6b656;" parent="1" vertex="1">
          <mxGeometry x="3541.056878609517" y="840" width="110" height="50" as="geometry" />
        </mxCell>
        <mxCell id="YQkaQOJaNGWVPEDzghuJ-70" value="PythonCodeGenButton" style="html=1;whiteSpace=wrap;fillColor=#fff2cc;strokeColor=#d6b656;" parent="1" vertex="1">
          <mxGeometry x="3713.199735752374" y="840" width="140" height="50" as="geometry" />
        </mxCell>
        <mxCell id="kuK__9mSJtx_CTiqH4BA-28" style="edgeStyle=orthogonalEdgeStyle;rounded=0;orthogonalLoop=1;jettySize=auto;html=1;exitX=0.25;exitY=1;exitDx=0;exitDy=0;" edge="1" parent="1" source="kuK__9mSJtx_CTiqH4BA-8" target="kuK__9mSJtx_CTiqH4BA-26">
          <mxGeometry relative="1" as="geometry" />
        </mxCell>
        <mxCell id="kuK__9mSJtx_CTiqH4BA-29" style="edgeStyle=orthogonalEdgeStyle;rounded=0;orthogonalLoop=1;jettySize=auto;html=1;exitX=0.75;exitY=1;exitDx=0;exitDy=0;" edge="1" parent="1" source="kuK__9mSJtx_CTiqH4BA-8" target="kuK__9mSJtx_CTiqH4BA-27">
          <mxGeometry relative="1" as="geometry" />
        </mxCell>
        <mxCell id="kuK__9mSJtx_CTiqH4BA-39" style="edgeStyle=orthogonalEdgeStyle;rounded=0;orthogonalLoop=1;jettySize=auto;html=1;exitX=1;exitY=1;exitDx=0;exitDy=0;" edge="1" parent="1" source="kuK__9mSJtx_CTiqH4BA-8" target="kuK__9mSJtx_CTiqH4BA-40">
          <mxGeometry relative="1" as="geometry">
            <mxPoint x="6690" y="940" as="targetPoint" />
          </mxGeometry>
        </mxCell>
        <mxCell id="kuK__9mSJtx_CTiqH4BA-135" style="edgeStyle=orthogonalEdgeStyle;rounded=0;orthogonalLoop=1;jettySize=auto;html=1;exitX=1;exitY=0.25;exitDx=0;exitDy=0;" edge="1" parent="1" source="kuK__9mSJtx_CTiqH4BA-8" target="kuK__9mSJtx_CTiqH4BA-134">
          <mxGeometry relative="1" as="geometry" />
        </mxCell>
        <mxCell id="kuK__9mSJtx_CTiqH4BA-8" value="Left Pane" style="html=1;whiteSpace=wrap;fillColor=#fff2cc;strokeColor=#d6b656;" vertex="1" parent="1">
          <mxGeometry x="4345.852796976864" y="600" width="110" height="50" as="geometry" />
        </mxCell>
        <mxCell id="kuK__9mSJtx_CTiqH4BA-18" style="edgeStyle=orthogonalEdgeStyle;rounded=0;orthogonalLoop=1;jettySize=auto;html=1;exitX=0;exitY=1;exitDx=0;exitDy=0;" edge="1" parent="1" source="kuK__9mSJtx_CTiqH4BA-9" target="kuK__9mSJtx_CTiqH4BA-14">
          <mxGeometry relative="1" as="geometry" />
        </mxCell>
        <mxCell id="kuK__9mSJtx_CTiqH4BA-19" style="edgeStyle=orthogonalEdgeStyle;rounded=0;orthogonalLoop=1;jettySize=auto;html=1;exitX=0.25;exitY=1;exitDx=0;exitDy=0;" edge="1" parent="1" source="kuK__9mSJtx_CTiqH4BA-9" target="kuK__9mSJtx_CTiqH4BA-15">
          <mxGeometry relative="1" as="geometry" />
        </mxCell>
        <mxCell id="kuK__9mSJtx_CTiqH4BA-20" style="edgeStyle=orthogonalEdgeStyle;rounded=0;orthogonalLoop=1;jettySize=auto;html=1;exitX=0.5;exitY=1;exitDx=0;exitDy=0;" edge="1" parent="1" source="kuK__9mSJtx_CTiqH4BA-9" target="kuK__9mSJtx_CTiqH4BA-16">
          <mxGeometry relative="1" as="geometry" />
        </mxCell>
        <mxCell id="kuK__9mSJtx_CTiqH4BA-21" style="edgeStyle=orthogonalEdgeStyle;rounded=0;orthogonalLoop=1;jettySize=auto;html=1;exitX=0.75;exitY=1;exitDx=0;exitDy=0;" edge="1" parent="1" source="kuK__9mSJtx_CTiqH4BA-9" target="kuK__9mSJtx_CTiqH4BA-17">
          <mxGeometry relative="1" as="geometry" />
        </mxCell>
        <mxCell id="kuK__9mSJtx_CTiqH4BA-140" style="edgeStyle=orthogonalEdgeStyle;rounded=0;orthogonalLoop=1;jettySize=auto;html=1;exitX=1;exitY=0.5;exitDx=0;exitDy=0;" edge="1" parent="1" source="kuK__9mSJtx_CTiqH4BA-9" target="kuK__9mSJtx_CTiqH4BA-139">
          <mxGeometry relative="1" as="geometry" />
        </mxCell>
        <mxCell id="kuK__9mSJtx_CTiqH4BA-142" style="edgeStyle=orthogonalEdgeStyle;rounded=0;orthogonalLoop=1;jettySize=auto;html=1;exitX=0;exitY=0.5;exitDx=0;exitDy=0;" edge="1" parent="1" source="kuK__9mSJtx_CTiqH4BA-9" target="kuK__9mSJtx_CTiqH4BA-141">
          <mxGeometry relative="1" as="geometry" />
        </mxCell>
        <mxCell id="kuK__9mSJtx_CTiqH4BA-9" value="Right Pane" style="html=1;whiteSpace=wrap;fillColor=#fff2cc;strokeColor=#d6b656;" vertex="1" parent="1">
          <mxGeometry x="5099.5058582013535" y="600" width="110" height="50" as="geometry" />
        </mxCell>
        <mxCell id="kuK__9mSJtx_CTiqH4BA-47" style="edgeStyle=orthogonalEdgeStyle;rounded=0;orthogonalLoop=1;jettySize=auto;html=1;exitX=0;exitY=1;exitDx=0;exitDy=0;" edge="1" parent="1" source="kuK__9mSJtx_CTiqH4BA-10" target="kuK__9mSJtx_CTiqH4BA-41">
          <mxGeometry relative="1" as="geometry" />
        </mxCell>
        <mxCell id="kuK__9mSJtx_CTiqH4BA-48" style="edgeStyle=orthogonalEdgeStyle;rounded=0;orthogonalLoop=1;jettySize=auto;html=1;exitX=0.25;exitY=1;exitDx=0;exitDy=0;" edge="1" parent="1" source="kuK__9mSJtx_CTiqH4BA-10" target="kuK__9mSJtx_CTiqH4BA-42">
          <mxGeometry relative="1" as="geometry" />
        </mxCell>
        <mxCell id="kuK__9mSJtx_CTiqH4BA-49" style="edgeStyle=orthogonalEdgeStyle;rounded=0;orthogonalLoop=1;jettySize=auto;html=1;exitX=0.5;exitY=1;exitDx=0;exitDy=0;" edge="1" parent="1" source="kuK__9mSJtx_CTiqH4BA-10" target="kuK__9mSJtx_CTiqH4BA-43">
          <mxGeometry relative="1" as="geometry" />
        </mxCell>
        <mxCell id="kuK__9mSJtx_CTiqH4BA-50" style="edgeStyle=orthogonalEdgeStyle;rounded=0;orthogonalLoop=1;jettySize=auto;html=1;exitX=0.75;exitY=1;exitDx=0;exitDy=0;" edge="1" parent="1" source="kuK__9mSJtx_CTiqH4BA-10" target="kuK__9mSJtx_CTiqH4BA-44">
          <mxGeometry relative="1" as="geometry" />
        </mxCell>
        <mxCell id="kuK__9mSJtx_CTiqH4BA-51" style="edgeStyle=orthogonalEdgeStyle;rounded=0;orthogonalLoop=1;jettySize=auto;html=1;exitX=1;exitY=1;exitDx=0;exitDy=0;" edge="1" parent="1" source="kuK__9mSJtx_CTiqH4BA-10" target="kuK__9mSJtx_CTiqH4BA-45">
          <mxGeometry relative="1" as="geometry" />
        </mxCell>
        <mxCell id="kuK__9mSJtx_CTiqH4BA-52" style="edgeStyle=orthogonalEdgeStyle;rounded=0;orthogonalLoop=1;jettySize=auto;html=1;exitX=1;exitY=0.5;exitDx=0;exitDy=0;" edge="1" parent="1" source="kuK__9mSJtx_CTiqH4BA-10" target="kuK__9mSJtx_CTiqH4BA-46">
          <mxGeometry relative="1" as="geometry" />
        </mxCell>
        <mxCell id="kuK__9mSJtx_CTiqH4BA-149" style="edgeStyle=orthogonalEdgeStyle;rounded=0;orthogonalLoop=1;jettySize=auto;html=1;exitX=1;exitY=0.25;exitDx=0;exitDy=0;" edge="1" parent="1" source="kuK__9mSJtx_CTiqH4BA-10" target="kuK__9mSJtx_CTiqH4BA-130">
          <mxGeometry relative="1" as="geometry" />
        </mxCell>
        <mxCell id="kuK__9mSJtx_CTiqH4BA-10" value="GraphCanvas" style="html=1;whiteSpace=wrap;fillColor=#fff2cc;strokeColor=#d6b656;" vertex="1" parent="1">
          <mxGeometry x="7208.14871534421" y="600" width="110" height="50" as="geometry" />
        </mxCell>
        <mxCell id="kuK__9mSJtx_CTiqH4BA-14" value="EntityName" style="html=1;whiteSpace=wrap;fillColor=#fff2cc;strokeColor=#d6b656;" vertex="1" parent="1">
          <mxGeometry x="4727.64871534421" y="720" width="110" height="50" as="geometry" />
        </mxCell>
        <mxCell id="kuK__9mSJtx_CTiqH4BA-24" style="edgeStyle=orthogonalEdgeStyle;rounded=0;orthogonalLoop=1;jettySize=auto;html=1;exitX=0.25;exitY=1;exitDx=0;exitDy=0;" edge="1" parent="1" source="kuK__9mSJtx_CTiqH4BA-15" target="kuK__9mSJtx_CTiqH4BA-22">
          <mxGeometry relative="1" as="geometry" />
        </mxCell>
        <mxCell id="kuK__9mSJtx_CTiqH4BA-25" style="edgeStyle=orthogonalEdgeStyle;rounded=0;orthogonalLoop=1;jettySize=auto;html=1;exitX=0.75;exitY=1;exitDx=0;exitDy=0;" edge="1" parent="1" source="kuK__9mSJtx_CTiqH4BA-15" target="kuK__9mSJtx_CTiqH4BA-23">
          <mxGeometry relative="1" as="geometry" />
        </mxCell>
        <mxCell id="kuK__9mSJtx_CTiqH4BA-15" value="Arguments" style="html=1;whiteSpace=wrap;fillColor=#fff2cc;strokeColor=#d6b656;" vertex="1" parent="1">
          <mxGeometry x="5307.64871534421" y="720" width="110" height="50" as="geometry" />
        </mxCell>
        <mxCell id="kuK__9mSJtx_CTiqH4BA-16" value="CodeCommentTextArea" style="html=1;whiteSpace=wrap;fillColor=#fff2cc;strokeColor=#d6b656;" vertex="1" parent="1">
          <mxGeometry x="4877.64871534421" y="720" width="141" height="50" as="geometry" />
        </mxCell>
        <mxCell id="kuK__9mSJtx_CTiqH4BA-143" style="edgeStyle=orthogonalEdgeStyle;rounded=0;orthogonalLoop=1;jettySize=auto;html=1;exitX=0;exitY=0.25;exitDx=0;exitDy=0;" edge="1" parent="1" source="kuK__9mSJtx_CTiqH4BA-17" target="kuK__9mSJtx_CTiqH4BA-141">
          <mxGeometry relative="1" as="geometry" />
        </mxCell>
        <mxCell id="kuK__9mSJtx_CTiqH4BA-17" value="MinimizeMaximizeButton" style="html=1;whiteSpace=wrap;fillColor=#fff2cc;strokeColor=#d6b656;" vertex="1" parent="1">
          <mxGeometry x="5058.64871534421" y="720" width="152" height="50" as="geometry" />
        </mxCell>
        <mxCell id="kuK__9mSJtx_CTiqH4BA-22" value="KeyValues" style="html=1;whiteSpace=wrap;fillColor=#fff2cc;strokeColor=#d6b656;" vertex="1" parent="1">
          <mxGeometry x="5224.64871534421" y="840" width="110" height="50" as="geometry" />
        </mxCell>
        <mxCell id="kuK__9mSJtx_CTiqH4BA-23" value="InsertNewKeyButton" style="html=1;whiteSpace=wrap;fillColor=#fff2cc;strokeColor=#d6b656;" vertex="1" parent="1">
          <mxGeometry x="5374.64871534421" y="840" width="126" height="50" as="geometry" />
        </mxCell>
        <mxCell id="kuK__9mSJtx_CTiqH4BA-31" style="edgeStyle=orthogonalEdgeStyle;rounded=0;orthogonalLoop=1;jettySize=auto;html=1;exitX=0;exitY=1;exitDx=0;exitDy=0;" edge="1" parent="1" source="kuK__9mSJtx_CTiqH4BA-26" target="kuK__9mSJtx_CTiqH4BA-30">
          <mxGeometry relative="1" as="geometry" />
        </mxCell>
        <mxCell id="kuK__9mSJtx_CTiqH4BA-34" style="edgeStyle=orthogonalEdgeStyle;rounded=0;orthogonalLoop=1;jettySize=auto;html=1;exitX=1;exitY=1;exitDx=0;exitDy=0;" edge="1" parent="1" source="kuK__9mSJtx_CTiqH4BA-26" target="kuK__9mSJtx_CTiqH4BA-33">
          <mxGeometry relative="1" as="geometry" />
        </mxCell>
        <mxCell id="kuK__9mSJtx_CTiqH4BA-26" value="AddAndChooseNodeButton" style="html=1;whiteSpace=wrap;fillColor=#fff2cc;strokeColor=#d6b656;" vertex="1" parent="1">
          <mxGeometry x="4114.056878609517" y="720" width="176" height="50" as="geometry" />
        </mxCell>
        <mxCell id="kuK__9mSJtx_CTiqH4BA-32" style="edgeStyle=orthogonalEdgeStyle;rounded=0;orthogonalLoop=1;jettySize=auto;html=1;exitX=0;exitY=1;exitDx=0;exitDy=0;" edge="1" parent="1" source="kuK__9mSJtx_CTiqH4BA-27" target="kuK__9mSJtx_CTiqH4BA-30">
          <mxGeometry relative="1" as="geometry" />
        </mxCell>
        <mxCell id="kuK__9mSJtx_CTiqH4BA-27" value="AddNodeButton" style="html=1;whiteSpace=wrap;fillColor=#fff2cc;strokeColor=#d6b656;" vertex="1" parent="1">
          <mxGeometry x="4397.648715344211" y="720" width="110" height="50" as="geometry" />
        </mxCell>
        <mxCell id="kuK__9mSJtx_CTiqH4BA-30" value="CommonUnderlyingButton" style="html=1;whiteSpace=wrap;fillColor=#fff2cc;strokeColor=#d6b656;" vertex="1" parent="1">
          <mxGeometry x="4248.342592895232" y="840" width="160" height="50" as="geometry" />
        </mxCell>
        <mxCell id="kuK__9mSJtx_CTiqH4BA-37" style="edgeStyle=orthogonalEdgeStyle;rounded=0;orthogonalLoop=1;jettySize=auto;html=1;exitX=0;exitY=1;exitDx=0;exitDy=0;" edge="1" parent="1" source="kuK__9mSJtx_CTiqH4BA-33" target="kuK__9mSJtx_CTiqH4BA-36">
          <mxGeometry relative="1" as="geometry" />
        </mxCell>
        <mxCell id="kuK__9mSJtx_CTiqH4BA-38" style="edgeStyle=orthogonalEdgeStyle;rounded=0;orthogonalLoop=1;jettySize=auto;html=1;exitX=0.25;exitY=1;exitDx=0;exitDy=0;" edge="1" parent="1" source="kuK__9mSJtx_CTiqH4BA-33" target="kuK__9mSJtx_CTiqH4BA-35">
          <mxGeometry relative="1" as="geometry" />
        </mxCell>
        <mxCell id="kuK__9mSJtx_CTiqH4BA-138" style="edgeStyle=orthogonalEdgeStyle;rounded=0;orthogonalLoop=1;jettySize=auto;html=1;exitX=0;exitY=0.25;exitDx=0;exitDy=0;" edge="1" parent="1" source="kuK__9mSJtx_CTiqH4BA-33" target="kuK__9mSJtx_CTiqH4BA-137">
          <mxGeometry relative="1" as="geometry" />
        </mxCell>
        <mxCell id="kuK__9mSJtx_CTiqH4BA-33" value="ContentBox" style="html=1;whiteSpace=wrap;fillColor=#fff2cc;strokeColor=#d6b656;" vertex="1" parent="1">
          <mxGeometry x="3995.771164323803" y="840" width="110" height="50" as="geometry" />
        </mxCell>
        <mxCell id="kuK__9mSJtx_CTiqH4BA-148" style="edgeStyle=orthogonalEdgeStyle;rounded=0;orthogonalLoop=1;jettySize=auto;html=1;exitX=0.5;exitY=1;exitDx=0;exitDy=0;" edge="1" parent="1" source="kuK__9mSJtx_CTiqH4BA-35" target="kuK__9mSJtx_CTiqH4BA-147">
          <mxGeometry relative="1" as="geometry" />
        </mxCell>
        <mxCell id="kuK__9mSJtx_CTiqH4BA-35" value="HierarchicalElementChooser" style="html=1;whiteSpace=wrap;fillColor=#fff2cc;strokeColor=#d6b656;" vertex="1" parent="1">
          <mxGeometry x="3816.271164323803" y="960" width="162" height="50" as="geometry" />
        </mxCell>
        <mxCell id="kuK__9mSJtx_CTiqH4BA-146" style="edgeStyle=orthogonalEdgeStyle;rounded=0;orthogonalLoop=1;jettySize=auto;html=1;exitX=0.5;exitY=1;exitDx=0;exitDy=0;" edge="1" parent="1" source="kuK__9mSJtx_CTiqH4BA-36" target="kuK__9mSJtx_CTiqH4BA-145">
          <mxGeometry relative="1" as="geometry" />
        </mxCell>
        <mxCell id="kuK__9mSJtx_CTiqH4BA-36" value="PrespecifiedOptions" style="html=1;whiteSpace=wrap;fillColor=#fff2cc;strokeColor=#d6b656;" vertex="1" parent="1">
          <mxGeometry x="4018.271164323803" y="960" width="127" height="50" as="geometry" />
        </mxCell>
        <mxCell id="kuK__9mSJtx_CTiqH4BA-136" style="edgeStyle=orthogonalEdgeStyle;rounded=0;orthogonalLoop=1;jettySize=auto;html=1;exitX=0.75;exitY=0;exitDx=0;exitDy=0;" edge="1" parent="1" source="kuK__9mSJtx_CTiqH4BA-40" target="kuK__9mSJtx_CTiqH4BA-134">
          <mxGeometry relative="1" as="geometry" />
        </mxCell>
        <mxCell id="kuK__9mSJtx_CTiqH4BA-40" value="MinimizeMaximizeButton" style="html=1;whiteSpace=wrap;fillColor=#fff2cc;strokeColor=#d6b656;" vertex="1" parent="1">
          <mxGeometry x="4547.648715344211" y="720" width="140" height="50" as="geometry" />
        </mxCell>
        <mxCell id="kuK__9mSJtx_CTiqH4BA-58" style="edgeStyle=orthogonalEdgeStyle;rounded=0;orthogonalLoop=1;jettySize=auto;html=1;exitX=0;exitY=1;exitDx=0;exitDy=0;entryX=0.5;entryY=0;entryDx=0;entryDy=0;" edge="1" parent="1" source="kuK__9mSJtx_CTiqH4BA-41" target="kuK__9mSJtx_CTiqH4BA-53">
          <mxGeometry relative="1" as="geometry" />
        </mxCell>
        <mxCell id="kuK__9mSJtx_CTiqH4BA-60" style="edgeStyle=orthogonalEdgeStyle;rounded=0;orthogonalLoop=1;jettySize=auto;html=1;exitX=0.25;exitY=1;exitDx=0;exitDy=0;" edge="1" parent="1" source="kuK__9mSJtx_CTiqH4BA-41" target="kuK__9mSJtx_CTiqH4BA-59">
          <mxGeometry relative="1" as="geometry" />
        </mxCell>
        <mxCell id="kuK__9mSJtx_CTiqH4BA-62" style="edgeStyle=orthogonalEdgeStyle;rounded=0;orthogonalLoop=1;jettySize=auto;html=1;exitX=0.5;exitY=1;exitDx=0;exitDy=0;" edge="1" parent="1" source="kuK__9mSJtx_CTiqH4BA-41" target="kuK__9mSJtx_CTiqH4BA-61">
          <mxGeometry relative="1" as="geometry" />
        </mxCell>
        <mxCell id="kuK__9mSJtx_CTiqH4BA-64" style="edgeStyle=orthogonalEdgeStyle;rounded=0;orthogonalLoop=1;jettySize=auto;html=1;exitX=0.75;exitY=1;exitDx=0;exitDy=0;" edge="1" parent="1" source="kuK__9mSJtx_CTiqH4BA-41" target="kuK__9mSJtx_CTiqH4BA-63">
          <mxGeometry relative="1" as="geometry" />
        </mxCell>
        <mxCell id="kuK__9mSJtx_CTiqH4BA-41" value="LayerNode" style="html=1;whiteSpace=wrap;fillColor=#fff2cc;strokeColor=#d6b656;" vertex="1" parent="1">
          <mxGeometry x="5831.363001058497" y="720" width="110" height="50" as="geometry" />
        </mxCell>
        <mxCell id="kuK__9mSJtx_CTiqH4BA-66" style="edgeStyle=orthogonalEdgeStyle;rounded=0;orthogonalLoop=1;jettySize=auto;html=1;exitX=0.5;exitY=1;exitDx=0;exitDy=0;" edge="1" parent="1" source="kuK__9mSJtx_CTiqH4BA-42" target="kuK__9mSJtx_CTiqH4BA-65">
          <mxGeometry relative="1" as="geometry" />
        </mxCell>
        <mxCell id="kuK__9mSJtx_CTiqH4BA-72" style="edgeStyle=orthogonalEdgeStyle;rounded=0;orthogonalLoop=1;jettySize=auto;html=1;exitX=0.75;exitY=1;exitDx=0;exitDy=0;" edge="1" parent="1" source="kuK__9mSJtx_CTiqH4BA-42" target="kuK__9mSJtx_CTiqH4BA-71">
          <mxGeometry relative="1" as="geometry" />
        </mxCell>
        <mxCell id="kuK__9mSJtx_CTiqH4BA-42" value="InputNode" style="html=1;whiteSpace=wrap;fillColor=#fff2cc;strokeColor=#d6b656;" vertex="1" parent="1">
          <mxGeometry x="6405.648715344211" y="720" width="110" height="50" as="geometry" />
        </mxCell>
        <mxCell id="kuK__9mSJtx_CTiqH4BA-77" style="edgeStyle=orthogonalEdgeStyle;rounded=0;orthogonalLoop=1;jettySize=auto;html=1;exitX=0;exitY=1;exitDx=0;exitDy=0;" edge="1" parent="1" source="kuK__9mSJtx_CTiqH4BA-43" target="kuK__9mSJtx_CTiqH4BA-73">
          <mxGeometry relative="1" as="geometry" />
        </mxCell>
        <mxCell id="kuK__9mSJtx_CTiqH4BA-78" style="edgeStyle=orthogonalEdgeStyle;rounded=0;orthogonalLoop=1;jettySize=auto;html=1;exitX=0.5;exitY=1;exitDx=0;exitDy=0;" edge="1" parent="1" source="kuK__9mSJtx_CTiqH4BA-43" target="kuK__9mSJtx_CTiqH4BA-74">
          <mxGeometry relative="1" as="geometry" />
        </mxCell>
        <mxCell id="kuK__9mSJtx_CTiqH4BA-43" value="OutputNode" style="html=1;whiteSpace=wrap;fillColor=#fff2cc;strokeColor=#d6b656;" vertex="1" parent="1">
          <mxGeometry x="6791.363001058497" y="720" width="110" height="50" as="geometry" />
        </mxCell>
        <mxCell id="kuK__9mSJtx_CTiqH4BA-91" style="edgeStyle=orthogonalEdgeStyle;rounded=0;orthogonalLoop=1;jettySize=auto;html=1;exitX=0;exitY=1;exitDx=0;exitDy=0;" edge="1" parent="1" source="kuK__9mSJtx_CTiqH4BA-44" target="kuK__9mSJtx_CTiqH4BA-81">
          <mxGeometry relative="1" as="geometry" />
        </mxCell>
        <mxCell id="kuK__9mSJtx_CTiqH4BA-92" style="edgeStyle=orthogonalEdgeStyle;rounded=0;orthogonalLoop=1;jettySize=auto;html=1;exitX=0.25;exitY=1;exitDx=0;exitDy=0;" edge="1" parent="1" source="kuK__9mSJtx_CTiqH4BA-44" target="kuK__9mSJtx_CTiqH4BA-83">
          <mxGeometry relative="1" as="geometry" />
        </mxCell>
        <mxCell id="kuK__9mSJtx_CTiqH4BA-93" style="edgeStyle=orthogonalEdgeStyle;rounded=0;orthogonalLoop=1;jettySize=auto;html=1;exitX=0.5;exitY=1;exitDx=0;exitDy=0;" edge="1" parent="1" source="kuK__9mSJtx_CTiqH4BA-44" target="kuK__9mSJtx_CTiqH4BA-82">
          <mxGeometry relative="1" as="geometry" />
        </mxCell>
        <mxCell id="kuK__9mSJtx_CTiqH4BA-94" style="edgeStyle=orthogonalEdgeStyle;rounded=0;orthogonalLoop=1;jettySize=auto;html=1;exitX=0.75;exitY=1;exitDx=0;exitDy=0;" edge="1" parent="1" source="kuK__9mSJtx_CTiqH4BA-44" target="kuK__9mSJtx_CTiqH4BA-84">
          <mxGeometry relative="1" as="geometry" />
        </mxCell>
        <mxCell id="kuK__9mSJtx_CTiqH4BA-95" style="edgeStyle=orthogonalEdgeStyle;rounded=0;orthogonalLoop=1;jettySize=auto;html=1;exitX=1;exitY=1;exitDx=0;exitDy=0;" edge="1" parent="1" source="kuK__9mSJtx_CTiqH4BA-44" target="kuK__9mSJtx_CTiqH4BA-85">
          <mxGeometry relative="1" as="geometry" />
        </mxCell>
        <mxCell id="kuK__9mSJtx_CTiqH4BA-44" value="PackerNode" style="html=1;whiteSpace=wrap;fillColor=#fff2cc;strokeColor=#d6b656;" vertex="1" parent="1">
          <mxGeometry x="7347.791572487068" y="720" width="110" height="50" as="geometry" />
        </mxCell>
        <mxCell id="kuK__9mSJtx_CTiqH4BA-96" style="edgeStyle=orthogonalEdgeStyle;rounded=0;orthogonalLoop=1;jettySize=auto;html=1;exitX=0;exitY=1;exitDx=0;exitDy=0;" edge="1" parent="1" source="kuK__9mSJtx_CTiqH4BA-45" target="kuK__9mSJtx_CTiqH4BA-86">
          <mxGeometry relative="1" as="geometry" />
        </mxCell>
        <mxCell id="kuK__9mSJtx_CTiqH4BA-97" style="edgeStyle=orthogonalEdgeStyle;rounded=0;orthogonalLoop=1;jettySize=auto;html=1;exitX=0.25;exitY=1;exitDx=0;exitDy=0;" edge="1" parent="1" source="kuK__9mSJtx_CTiqH4BA-45" target="kuK__9mSJtx_CTiqH4BA-87">
          <mxGeometry relative="1" as="geometry" />
        </mxCell>
        <mxCell id="kuK__9mSJtx_CTiqH4BA-98" style="edgeStyle=orthogonalEdgeStyle;rounded=0;orthogonalLoop=1;jettySize=auto;html=1;exitX=0.5;exitY=1;exitDx=0;exitDy=0;" edge="1" parent="1" source="kuK__9mSJtx_CTiqH4BA-45" target="kuK__9mSJtx_CTiqH4BA-88">
          <mxGeometry relative="1" as="geometry" />
        </mxCell>
        <mxCell id="kuK__9mSJtx_CTiqH4BA-99" style="edgeStyle=orthogonalEdgeStyle;rounded=0;orthogonalLoop=1;jettySize=auto;html=1;exitX=0.75;exitY=1;exitDx=0;exitDy=0;" edge="1" parent="1" source="kuK__9mSJtx_CTiqH4BA-45" target="kuK__9mSJtx_CTiqH4BA-89">
          <mxGeometry relative="1" as="geometry" />
        </mxCell>
        <mxCell id="kuK__9mSJtx_CTiqH4BA-100" style="edgeStyle=orthogonalEdgeStyle;rounded=0;orthogonalLoop=1;jettySize=auto;html=1;exitX=1;exitY=1;exitDx=0;exitDy=0;" edge="1" parent="1" source="kuK__9mSJtx_CTiqH4BA-45" target="kuK__9mSJtx_CTiqH4BA-90">
          <mxGeometry relative="1" as="geometry" />
        </mxCell>
        <mxCell id="kuK__9mSJtx_CTiqH4BA-45" value="UnpackerNode" style="html=1;whiteSpace=wrap;fillColor=#fff2cc;strokeColor=#d6b656;" vertex="1" parent="1">
          <mxGeometry x="8117.791572487068" y="720" width="110" height="50" as="geometry" />
        </mxCell>
        <mxCell id="kuK__9mSJtx_CTiqH4BA-46" value="ReuseNode" style="html=1;whiteSpace=wrap;fillColor=#f8cecc;strokeColor=#b85450;" vertex="1" parent="1">
          <mxGeometry x="8444.934429629926" y="720" width="110" height="50" as="geometry" />
        </mxCell>
        <mxCell id="kuK__9mSJtx_CTiqH4BA-56" style="edgeStyle=orthogonalEdgeStyle;rounded=0;orthogonalLoop=1;jettySize=auto;html=1;exitX=0;exitY=1;exitDx=0;exitDy=0;" edge="1" parent="1" source="kuK__9mSJtx_CTiqH4BA-53" target="kuK__9mSJtx_CTiqH4BA-54">
          <mxGeometry relative="1" as="geometry" />
        </mxCell>
        <mxCell id="kuK__9mSJtx_CTiqH4BA-57" style="edgeStyle=orthogonalEdgeStyle;rounded=0;orthogonalLoop=1;jettySize=auto;html=1;exitX=0.25;exitY=1;exitDx=0;exitDy=0;" edge="1" parent="1" source="kuK__9mSJtx_CTiqH4BA-53" target="kuK__9mSJtx_CTiqH4BA-55">
          <mxGeometry relative="1" as="geometry" />
        </mxCell>
        <mxCell id="kuK__9mSJtx_CTiqH4BA-53" value="MainLayerBox" style="html=1;whiteSpace=wrap;fillColor=#fff2cc;strokeColor=#d6b656;" vertex="1" parent="1">
          <mxGeometry x="5583.5058582013535" y="840" width="110" height="50" as="geometry" />
        </mxCell>
        <mxCell id="kuK__9mSJtx_CTiqH4BA-54" value="TitleRow" style="html=1;whiteSpace=wrap;fillColor=#fff2cc;strokeColor=#d6b656;" vertex="1" parent="1">
          <mxGeometry x="5508.5058582013535" y="960" width="110" height="50" as="geometry" />
        </mxCell>
        <mxCell id="kuK__9mSJtx_CTiqH4BA-55" value="NodeArea" style="html=1;whiteSpace=wrap;fillColor=#fff2cc;strokeColor=#d6b656;" vertex="1" parent="1">
          <mxGeometry x="5658.5058582013535" y="960" width="110" height="50" as="geometry" />
        </mxCell>
        <mxCell id="kuK__9mSJtx_CTiqH4BA-59" value="InputHandle" style="html=1;whiteSpace=wrap;fillColor=#fff2cc;strokeColor=#d6b656;" vertex="1" parent="1">
          <mxGeometry x="5776.363001058497" y="840" width="110" height="50" as="geometry" />
        </mxCell>
        <mxCell id="kuK__9mSJtx_CTiqH4BA-61" value="OutputHandle" style="html=1;whiteSpace=wrap;fillColor=#fff2cc;strokeColor=#d6b656;" vertex="1" parent="1">
          <mxGeometry x="5926.363001058497" y="840" width="110" height="50" as="geometry" />
        </mxCell>
        <mxCell id="kuK__9mSJtx_CTiqH4BA-151" style="edgeStyle=orthogonalEdgeStyle;rounded=0;orthogonalLoop=1;jettySize=auto;html=1;exitX=0.25;exitY=1;exitDx=0;exitDy=0;" edge="1" parent="1" source="kuK__9mSJtx_CTiqH4BA-63" target="kuK__9mSJtx_CTiqH4BA-150">
          <mxGeometry relative="1" as="geometry" />
        </mxCell>
        <mxCell id="kuK__9mSJtx_CTiqH4BA-63" value="InfoBox" style="html=1;whiteSpace=wrap;fillColor=#fff2cc;strokeColor=#d6b656;" vertex="1" parent="1">
          <mxGeometry x="6079.22014391564" y="840" width="110" height="50" as="geometry" />
        </mxCell>
        <mxCell id="kuK__9mSJtx_CTiqH4BA-68" style="edgeStyle=orthogonalEdgeStyle;rounded=0;orthogonalLoop=1;jettySize=auto;html=1;exitX=0;exitY=1;exitDx=0;exitDy=0;" edge="1" parent="1" source="kuK__9mSJtx_CTiqH4BA-65" target="kuK__9mSJtx_CTiqH4BA-67">
          <mxGeometry relative="1" as="geometry" />
        </mxCell>
        <mxCell id="kuK__9mSJtx_CTiqH4BA-70" style="edgeStyle=orthogonalEdgeStyle;rounded=0;orthogonalLoop=1;jettySize=auto;html=1;exitX=0.5;exitY=1;exitDx=0;exitDy=0;" edge="1" parent="1" source="kuK__9mSJtx_CTiqH4BA-65" target="kuK__9mSJtx_CTiqH4BA-69">
          <mxGeometry relative="1" as="geometry" />
        </mxCell>
        <mxCell id="kuK__9mSJtx_CTiqH4BA-65" value="MainInputBox" style="html=1;whiteSpace=wrap;fillColor=#fff2cc;strokeColor=#d6b656;" vertex="1" parent="1">
          <mxGeometry x="6309.22014391564" y="840" width="110" height="50" as="geometry" />
        </mxCell>
        <mxCell id="kuK__9mSJtx_CTiqH4BA-67" value="TitleRow" style="html=1;whiteSpace=wrap;fillColor=#fff2cc;strokeColor=#d6b656;" vertex="1" parent="1">
          <mxGeometry x="6234.22014391564" y="960" width="110" height="50" as="geometry" />
        </mxCell>
        <mxCell id="kuK__9mSJtx_CTiqH4BA-69" value="DimensionsDisplay" style="html=1;whiteSpace=wrap;fillColor=#fff2cc;strokeColor=#d6b656;" vertex="1" parent="1">
          <mxGeometry x="6384.22014391564" y="960" width="110" height="50" as="geometry" />
        </mxCell>
        <mxCell id="kuK__9mSJtx_CTiqH4BA-71" value="OutputHandle" style="html=1;whiteSpace=wrap;fillColor=#fff2cc;strokeColor=#d6b656;" vertex="1" parent="1">
          <mxGeometry x="6502.077286772783" y="840" width="110" height="50" as="geometry" />
        </mxCell>
        <mxCell id="kuK__9mSJtx_CTiqH4BA-79" style="edgeStyle=orthogonalEdgeStyle;rounded=0;orthogonalLoop=1;jettySize=auto;html=1;exitX=0;exitY=1;exitDx=0;exitDy=0;" edge="1" parent="1" source="kuK__9mSJtx_CTiqH4BA-73" target="kuK__9mSJtx_CTiqH4BA-75">
          <mxGeometry relative="1" as="geometry" />
        </mxCell>
        <mxCell id="kuK__9mSJtx_CTiqH4BA-80" style="edgeStyle=orthogonalEdgeStyle;rounded=0;orthogonalLoop=1;jettySize=auto;html=1;exitX=0.5;exitY=1;exitDx=0;exitDy=0;" edge="1" parent="1" source="kuK__9mSJtx_CTiqH4BA-73" target="kuK__9mSJtx_CTiqH4BA-76">
          <mxGeometry relative="1" as="geometry" />
        </mxCell>
        <mxCell id="kuK__9mSJtx_CTiqH4BA-73" value="MainOutputBox" style="html=1;whiteSpace=wrap;fillColor=#fff2cc;strokeColor=#d6b656;" vertex="1" parent="1">
          <mxGeometry x="6694.934429629925" y="840" width="110" height="50" as="geometry" />
        </mxCell>
        <mxCell id="kuK__9mSJtx_CTiqH4BA-74" value="InputHandle" style="html=1;whiteSpace=wrap;fillColor=#fff2cc;strokeColor=#d6b656;" vertex="1" parent="1">
          <mxGeometry x="6887.791572487068" y="840" width="110" height="50" as="geometry" />
        </mxCell>
        <mxCell id="kuK__9mSJtx_CTiqH4BA-75" value="TitleRow" style="html=1;whiteSpace=wrap;fillColor=#fff2cc;strokeColor=#d6b656;" vertex="1" parent="1">
          <mxGeometry x="6619.934429629925" y="960" width="110" height="50" as="geometry" />
        </mxCell>
        <mxCell id="kuK__9mSJtx_CTiqH4BA-76" value="DimensionsDisplay" style="html=1;whiteSpace=wrap;fillColor=#fff2cc;strokeColor=#d6b656;" vertex="1" parent="1">
          <mxGeometry x="6769.934429629925" y="960" width="110" height="50" as="geometry" />
        </mxCell>
        <mxCell id="kuK__9mSJtx_CTiqH4BA-81" value="HandleRemoveButton" style="html=1;whiteSpace=wrap;fillColor=#fff2cc;strokeColor=#d6b656;" vertex="1" parent="1">
          <mxGeometry x="7037.791572487068" y="840" width="130" height="50" as="geometry" />
        </mxCell>
        <mxCell id="kuK__9mSJtx_CTiqH4BA-154" style="edgeStyle=orthogonalEdgeStyle;rounded=0;orthogonalLoop=1;jettySize=auto;html=1;exitX=0.25;exitY=1;exitDx=0;exitDy=0;" edge="1" parent="1" source="kuK__9mSJtx_CTiqH4BA-82" target="kuK__9mSJtx_CTiqH4BA-152">
          <mxGeometry relative="1" as="geometry" />
        </mxCell>
        <mxCell id="kuK__9mSJtx_CTiqH4BA-82" value="InputHandle" style="html=1;whiteSpace=wrap;fillColor=#fff2cc;strokeColor=#d6b656;" vertex="1" parent="1">
          <mxGeometry x="7357.791572487068" y="840" width="110" height="50" as="geometry" />
        </mxCell>
        <mxCell id="kuK__9mSJtx_CTiqH4BA-83" value="AddHandleButton" style="html=1;whiteSpace=wrap;fillColor=#fff2cc;strokeColor=#d6b656;" vertex="1" parent="1">
          <mxGeometry x="7207.791572487068" y="840" width="110" height="50" as="geometry" />
        </mxCell>
        <mxCell id="kuK__9mSJtx_CTiqH4BA-84" value="OutputHandle" style="html=1;whiteSpace=wrap;fillColor=#fff2cc;strokeColor=#d6b656;" vertex="1" parent="1">
          <mxGeometry x="7507.791572487068" y="840" width="110" height="50" as="geometry" />
        </mxCell>
        <mxCell id="kuK__9mSJtx_CTiqH4BA-85" value="MainContentBox" style="html=1;whiteSpace=wrap;fillColor=#fff2cc;strokeColor=#d6b656;" vertex="1" parent="1">
          <mxGeometry x="7657.791572487068" y="840" width="110" height="50" as="geometry" />
        </mxCell>
        <mxCell id="kuK__9mSJtx_CTiqH4BA-86" value="HandleRemoveButton" style="html=1;whiteSpace=wrap;fillColor=#fff2cc;strokeColor=#d6b656;" vertex="1" parent="1">
          <mxGeometry x="7807.791572487068" y="840" width="130" height="50" as="geometry" />
        </mxCell>
        <mxCell id="kuK__9mSJtx_CTiqH4BA-87" value="AddHandleButton" style="html=1;whiteSpace=wrap;fillColor=#fff2cc;strokeColor=#d6b656;" vertex="1" parent="1">
          <mxGeometry x="7977.791572487068" y="840" width="110" height="50" as="geometry" />
        </mxCell>
        <mxCell id="kuK__9mSJtx_CTiqH4BA-155" style="edgeStyle=orthogonalEdgeStyle;rounded=0;orthogonalLoop=1;jettySize=auto;html=1;exitX=0.25;exitY=1;exitDx=0;exitDy=0;" edge="1" parent="1" source="kuK__9mSJtx_CTiqH4BA-88" target="kuK__9mSJtx_CTiqH4BA-153">
          <mxGeometry relative="1" as="geometry" />
        </mxCell>
        <mxCell id="kuK__9mSJtx_CTiqH4BA-88" value="InputHandles" style="html=1;whiteSpace=wrap;fillColor=#fff2cc;strokeColor=#d6b656;" vertex="1" parent="1">
          <mxGeometry x="8127.791572487068" y="840" width="110" height="50" as="geometry" />
        </mxCell>
        <mxCell id="kuK__9mSJtx_CTiqH4BA-89" value="OutputHandles" style="html=1;whiteSpace=wrap;fillColor=#fff2cc;strokeColor=#d6b656;" vertex="1" parent="1">
          <mxGeometry x="8277.791572487069" y="840" width="110" height="50" as="geometry" />
        </mxCell>
        <mxCell id="kuK__9mSJtx_CTiqH4BA-90" value="MainContentBox" style="html=1;whiteSpace=wrap;fillColor=#fff2cc;strokeColor=#d6b656;" vertex="1" parent="1">
          <mxGeometry x="8427.791572487069" y="840" width="110" height="50" as="geometry" />
        </mxCell>
        <mxCell id="kuK__9mSJtx_CTiqH4BA-101" value="ChooseProjectScreen" style="html=1;whiteSpace=wrap;fillColor=#f8cecc;strokeColor=#b85450;" vertex="1" parent="1">
          <mxGeometry x="10176.430399017681" y="120" width="140" height="50" as="geometry" />
        </mxCell>
        <mxCell id="kuK__9mSJtx_CTiqH4BA-103" value="Which option is enabled?" style="html=1;dashed=0;whiteSpace=wrap;shape=partialRectangle;right=0;fillColor=#d5e8d4;strokeColor=#82b366;" vertex="1" parent="1">
          <mxGeometry x="2339.4242255482936" y="480" width="100" height="30" as="geometry" />
        </mxCell>
        <mxCell id="kuK__9mSJtx_CTiqH4BA-105" value="What string is entered?" style="html=1;dashed=0;whiteSpace=wrap;shape=partialRectangle;right=0;fillColor=#d5e8d4;strokeColor=#82b366;" vertex="1" parent="1">
          <mxGeometry x="8700.684429629922" y="1080" width="100" height="30" as="geometry" />
        </mxCell>
        <mxCell id="kuK__9mSJtx_CTiqH4BA-107" value="Is it checked?" style="html=1;dashed=0;whiteSpace=wrap;shape=partialRectangle;right=0;fillColor=#d5e8d4;strokeColor=#82b366;" vertex="1" parent="1">
          <mxGeometry x="8848.684429629922" y="1090" width="100" height="30" as="geometry" />
        </mxCell>
        <mxCell id="kuK__9mSJtx_CTiqH4BA-109" value="What is the content object?" style="html=1;dashed=0;whiteSpace=wrap;shape=partialRectangle;right=0;fillColor=#d5e8d4;strokeColor=#82b366;" vertex="1" parent="1">
          <mxGeometry x="9985.300143915636" y="960" width="100" height="30" as="geometry" />
        </mxCell>
        <mxCell id="kuK__9mSJtx_CTiqH4BA-111" value="What are the logs to be displayed?" style="html=1;dashed=0;whiteSpace=wrap;shape=partialRectangle;right=0;fillColor=#d5e8d4;strokeColor=#82b366;" vertex="1" parent="1">
          <mxGeometry x="10479.994021466655" y="720" width="100" height="30" as="geometry" />
        </mxCell>
        <mxCell id="kuK__9mSJtx_CTiqH4BA-114" value="This will load the logs lazily." style="text;html=1;strokeColor=default;fillColor=none;align=left;verticalAlign=top;whiteSpace=wrap;rounded=0;" vertex="1" parent="1">
          <mxGeometry x="10619.994021466655" y="720" width="130" height="40" as="geometry" />
        </mxCell>
        <mxCell id="kuK__9mSJtx_CTiqH4BA-117" value="Which option is selected?" style="html=1;dashed=0;whiteSpace=wrap;shape=partialRectangle;right=0;fillColor=#d5e8d4;strokeColor=#82b366;" vertex="1" parent="1">
          <mxGeometry x="2579.4242255482927" y="600" width="100" height="30" as="geometry" />
        </mxCell>
        <mxCell id="kuK__9mSJtx_CTiqH4BA-119" value="Is artefact filter selected?" style="html=1;dashed=0;whiteSpace=wrap;shape=partialRectangle;right=0;fillColor=#d5e8d4;strokeColor=#82b366;" vertex="1" parent="1">
          <mxGeometry x="2753.1997357523737" y="1080" width="100" height="30" as="geometry" />
        </mxCell>
        <mxCell id="kuK__9mSJtx_CTiqH4BA-121" value="What is the filesystem object?" style="html=1;dashed=0;whiteSpace=wrap;shape=partialRectangle;right=0;fillColor=#d5e8d4;strokeColor=#82b366;" vertex="1" parent="1">
          <mxGeometry x="3101.056878609517" y="840" width="100" height="30" as="geometry" />
        </mxCell>
        <mxCell id="kuK__9mSJtx_CTiqH4BA-123" value="Which tab is active?" style="html=1;dashed=0;whiteSpace=wrap;shape=partialRectangle;right=0;fillColor=#d5e8d4;strokeColor=#82b366;" vertex="1" parent="1">
          <mxGeometry x="3583.9140214666595" y="720" width="100" height="30" as="geometry" />
        </mxCell>
        <mxCell id="kuK__9mSJtx_CTiqH4BA-126" value="Which tab is active?" style="html=1;dashed=0;whiteSpace=wrap;shape=partialRectangle;right=0;fillColor=#d5e8d4;strokeColor=#82b366;" vertex="1" parent="1">
          <mxGeometry x="3893.199735752374" y="600" width="100" height="30" as="geometry" />
        </mxCell>
        <mxCell id="kuK__9mSJtx_CTiqH4BA-128" value="What tabs are open?" style="html=1;dashed=0;whiteSpace=wrap;shape=partialRectangle;right=0;fillColor=#d5e8d4;strokeColor=#82b366;" vertex="1" parent="1">
          <mxGeometry x="6335.900173070158" y="480" width="100" height="30" as="geometry" />
        </mxCell>
        <mxCell id="kuK__9mSJtx_CTiqH4BA-130" value="What data to display?" style="html=1;dashed=0;whiteSpace=wrap;shape=partialRectangle;right=0;fillColor=#d5e8d4;strokeColor=#82b366;" vertex="1" parent="1">
          <mxGeometry x="8594.934429629926" y="720" width="100" height="30" as="geometry" />
        </mxCell>
        <mxCell id="kuK__9mSJtx_CTiqH4BA-132" value="Use this for resizing the panel:&lt;br&gt;https://reactjsexample.com/resizable-split-panes-for-react-js/" style="text;html=1;strokeColor=default;fillColor=none;align=left;verticalAlign=top;whiteSpace=wrap;rounded=0;" vertex="1" parent="1">
          <mxGeometry x="3060.699735752374" y="480" width="230" height="60" as="geometry" />
        </mxCell>
        <mxCell id="kuK__9mSJtx_CTiqH4BA-134" value="Is it maximized or minimized?" style="html=1;dashed=0;whiteSpace=wrap;shape=partialRectangle;right=0;fillColor=#d5e8d4;strokeColor=#82b366;" vertex="1" parent="1">
          <mxGeometry x="4567.648715344211" y="840" width="100" height="30" as="geometry" />
        </mxCell>
        <mxCell id="kuK__9mSJtx_CTiqH4BA-137" value="It it open or closed?" style="html=1;dashed=0;whiteSpace=wrap;shape=partialRectangle;right=0;fillColor=#d5e8d4;strokeColor=#82b366;" vertex="1" parent="1">
          <mxGeometry x="4185.2711643238035" y="960" width="100" height="30" as="geometry" />
        </mxCell>
        <mxCell id="kuK__9mSJtx_CTiqH4BA-139" value="Which node is selected?" style="html=1;dashed=0;whiteSpace=wrap;shape=partialRectangle;right=0;fillColor=#d5e8d4;strokeColor=#82b366;" vertex="1" parent="1">
          <mxGeometry x="5481.363001058496" y="720" width="100" height="30" as="geometry" />
        </mxCell>
        <mxCell id="kuK__9mSJtx_CTiqH4BA-141" value="Is it maximized or minimized?" style="html=1;dashed=0;whiteSpace=wrap;shape=partialRectangle;right=0;fillColor=#d5e8d4;strokeColor=#82b366;" vertex="1" parent="1">
          <mxGeometry x="5084.64871534421" y="840" width="100" height="30" as="geometry" />
        </mxCell>
        <mxCell id="kuK__9mSJtx_CTiqH4BA-145" value="What is the state of options?" style="html=1;dashed=0;whiteSpace=wrap;shape=partialRectangle;right=0;fillColor=#d5e8d4;strokeColor=#82b366;" vertex="1" parent="1">
          <mxGeometry x="4031.771164323803" y="1080" width="100" height="30" as="geometry" />
        </mxCell>
        <mxCell id="kuK__9mSJtx_CTiqH4BA-147" value="What is the data and its config?" style="html=1;dashed=0;whiteSpace=wrap;shape=partialRectangle;right=0;fillColor=#d5e8d4;strokeColor=#82b366;" vertex="1" parent="1">
          <mxGeometry x="3847.271164323803" y="1080" width="100" height="30" as="geometry" />
        </mxCell>
        <mxCell id="kuK__9mSJtx_CTiqH4BA-150" value="Is the pointer hovering above the info box?" style="html=1;dashed=0;whiteSpace=wrap;shape=partialRectangle;right=0;fillColor=#d5e8d4;strokeColor=#82b366;" vertex="1" parent="1">
          <mxGeometry x="6074.22014391564" y="960" width="120" height="50" as="geometry" />
        </mxCell>
        <mxCell id="kuK__9mSJtx_CTiqH4BA-152" value="Is the handle being hovered?" style="html=1;dashed=0;whiteSpace=wrap;shape=partialRectangle;right=0;fillColor=#d5e8d4;strokeColor=#82b366;" vertex="1" parent="1">
          <mxGeometry x="7362.791572487068" y="960" width="100" height="50" as="geometry" />
        </mxCell>
        <mxCell id="kuK__9mSJtx_CTiqH4BA-153" value="Is the handle being hovered?" style="html=1;dashed=0;whiteSpace=wrap;shape=partialRectangle;right=0;fillColor=#d5e8d4;strokeColor=#82b366;" vertex="1" parent="1">
          <mxGeometry x="8132.791572487068" y="960" width="100" height="50" as="geometry" />
        </mxCell>
      </root>
    </mxGraphModel>
  </diagram>
</mxfile>
